<svg xmlns="http://www.w3.org/2000/svg" viewBox="0 0 621 105.6">
  <defs>
    <style>
      .cls-1 {
        fill: #01253a;
      }

      .cls-2 {
        fill: #002fd1;
      }

      .cls-3 {
        fill: #002fb7;
      }

      .cls-4 {
        fill: #fff;
      }
    </style>
  </defs>
  <g id="Layer_2" data-name="Layer 2">
    <g id="Layer_1-2" data-name="Layer 1">
      <g>
        <path class="cls-1" d="M214.1,23.38a29.16,29.16,0,0,0-13-2.67H176.08V81h15.5V65.25h9.56a28.75,28.75,0,0,0,13-2.72,19.85,19.85,0,0,0,8.42-7.71,22.66,22.66,0,0,0,3-11.8,23.06,23.06,0,0,0-3-11.93A19.54,19.54,0,0,0,214.1,23.38Zm-6.66,26.1q-2.38,2.33-7.24,2.33h-8.62V34.15h8.62q4.86,0,7.24,2.32A8.7,8.7,0,0,1,209.83,43,8.56,8.56,0,0,1,207.44,49.48Z"/>
        <path class="cls-1" d="M270.53,70.12a25.26,25.26,0,0,0,3.06-12.54,25,25,0,0,0-3.06-12.49A21.82,21.82,0,0,0,262,36.6a26.61,26.61,0,0,0-24.78,0,22.15,22.15,0,0,0-8.5,8.49,24.7,24.7,0,0,0-3.1,12.49,25,25,0,0,0,3.1,12.54,22.43,22.43,0,0,0,8.5,8.57,26.31,26.31,0,0,0,24.78,0A22.09,22.09,0,0,0,270.53,70.12Zm-13.16-6.47a8.84,8.84,0,0,1-3.17,3.84,8.26,8.26,0,0,1-4.58,1.29,8.11,8.11,0,0,1-4.5-1.29,9.05,9.05,0,0,1-3.21-3.84,13.92,13.92,0,0,1-1.22-6.07,13.44,13.44,0,0,1,1.22-6,9.15,9.15,0,0,1,3.21-3.75,8.11,8.11,0,0,1,4.5-1.29,8.26,8.26,0,0,1,4.58,1.29,8.92,8.92,0,0,1,3.17,3.75,13.73,13.73,0,0,1,1.18,6A14.23,14.23,0,0,1,257.37,63.65Z"/>
        <path class="cls-1" d="M277.19,79.72A7.21,7.21,0,0,1,276,84.37a3.91,3.91,0,0,1-3.17,1.47,8.05,8.05,0,0,1-4.62-1.38l-3.76,11.63a17.9,17.9,0,0,0,4.66,1.77,24.35,24.35,0,0,0,5.68.64q8.22,0,12.77-5.08t4.54-13.61V34.32H277.19Z"/>
        <path class="cls-1" d="M331.42,36.6a26.61,26.61,0,0,0-24.78,0,22.15,22.15,0,0,0-8.5,8.49A24.7,24.7,0,0,0,295,57.58a25,25,0,0,0,3.1,12.54,22.43,22.43,0,0,0,8.5,8.57,26.31,26.31,0,0,0,24.78,0,22.09,22.09,0,0,0,8.5-8.57A25.26,25.26,0,0,0,343,57.58a25,25,0,0,0-3.06-12.49A21.82,21.82,0,0,0,331.42,36.6Zm-4.66,27.05a8.84,8.84,0,0,1-3.17,3.84A8.26,8.26,0,0,1,319,68.78a8.11,8.11,0,0,1-4.5-1.29,9.05,9.05,0,0,1-3.21-3.84,13.92,13.92,0,0,1-1.22-6.07,13.44,13.44,0,0,1,1.22-6,9.15,9.15,0,0,1,3.21-3.75,8.11,8.11,0,0,1,4.5-1.29,8.26,8.26,0,0,1,4.58,1.29,8.92,8.92,0,0,1,3.17,3.75,13.73,13.73,0,0,1,1.18,6A14.23,14.23,0,0,1,326.76,63.65Z"/>
        <polygon class="cls-1" points="393.65 34.98 376.03 34.98 360.83 51.01 360.83 18 345.95 18 345.95 81.01 360.83 81.01 360.83 69.75 365.25 64.88 377.12 81.01 395.14 81.01 376.06 54.68 393.65 34.98"/>
        <g>
          <path class="cls-1" d="M448.84,50.73a24.29,24.29,0,0,0-6.07-3.1,64.3,64.3,0,0,0-6.66-1.94c-2.22-.52-4.25-1-6.11-1.51a14.17,14.17,0,0,1-4.46-1.89,3.64,3.64,0,0,1-1.69-3.15,4.57,4.57,0,0,1,.87-2.75,5.8,5.8,0,0,1,2.82-1.94,14.93,14.93,0,0,1,5.16-.74,25.37,25.37,0,0,1,7.44,1.17,35,35,0,0,1,7.76,3.49l4.78-12.67a32.2,32.2,0,0,0-9.28-3.92,42.63,42.63,0,0,0-10.62-1.33,30.27,30.27,0,0,0-13.47,2.67,19.13,19.13,0,0,0-8.1,7.06A18.32,18.32,0,0,0,408.5,40a16.42,16.42,0,0,0,1.73,8,14.79,14.79,0,0,0,4.46,5.09,25.45,25.45,0,0,0,6.07,3.14,56,56,0,0,0,6.66,2q3.33.78,6.07,1.55a14.93,14.93,0,0,1,4.46,2A3.8,3.8,0,0,1,439.67,65a3.85,3.85,0,0,1-.9,2.54,6.11,6.11,0,0,1-2.85,1.72,17,17,0,0,1-5.17.65,29,29,0,0,1-9.6-1.68,34.67,34.67,0,0,1-8.5-4.26l-5.09,12.57a31.85,31.85,0,0,0,10.15,4.78,45,45,0,0,0,13,1.86c5.43,0,9.93-.9,13.51-2.67a19.18,19.18,0,0,0,8.07-7.11A18.3,18.3,0,0,0,455,63.7a16.52,16.52,0,0,0-1.69-7.89A14.44,14.44,0,0,0,448.84,50.73Z"/>
          <path class="cls-1" d="M487.21,57.75a15.61,15.61,0,0,1-1.09,6.33,7.79,7.79,0,0,1-2.9,3.58,7.37,7.37,0,0,1-4,1.12A6.25,6.25,0,0,1,474,66.45q-1.84-2.33-1.84-7.75V35.27H457.3v26.1a27.77,27.77,0,0,0,2.31,12.1,15.22,15.22,0,0,0,6.42,7,19.1,19.1,0,0,0,9.28,2.24,16.9,16.9,0,0,0,9-2.55,14.49,14.49,0,0,0,3.6-3.13V82H502.1V35.27H487.21Z"/>
          <path class="cls-1" d="M525.82,34.49a36.91,36.91,0,0,0-10.06,1.42,27.32,27.32,0,0,0-8.65,4l5,11.11a16,16,0,0,1,5.32-3A19,19,0,0,1,523.63,47c3.13,0,5.42.71,6.85,2.11a7.68,7.68,0,0,1,2.11,5.3h-8.41a29,29,0,0,0-10.73,1.68,12.6,12.6,0,0,0-6.15,4.82,13.65,13.65,0,0,0-2,7.46,14.63,14.63,0,0,0,1.84,7.32,13,13,0,0,0,5.36,5.17,18,18,0,0,0,8.62,1.9,15,15,0,0,0,9-2.46,11.21,11.21,0,0,0,3.57-4.44V82h13.86V56q0-11.12-5.68-16.33T525.82,34.49Zm3.88,36.57a7.77,7.77,0,0,1-4.42,1.34,6,6,0,0,1-4.08-1.3,4.32,4.32,0,0,1-1.48-3.44,4.38,4.38,0,0,1,1.45-3.45q1.44-1.29,5.05-1.29h6.42v4A7.72,7.72,0,0,1,529.7,71.06Z"/>
          <path class="cls-1" d="M620.68,51.32a21.29,21.29,0,0,0-2.47-7.6,17.16,17.16,0,0,0-3.15-3.91s-.53-.48-1.12-.93a27.28,27.28,0,0,0-8.57-3.83,53.16,53.16,0,0,0-13.94-1.39,58.23,58.23,0,0,0-24.3,7.26l0-5.65H553V82h14.88c0-3.59,0-7.24,0-10.95,0-1.68,0-3.35.06-5a21.56,21.56,0,0,1,8.86-17.38l.16-.12c.82-.57,12.1-8.13,21.68-2.6a17.56,17.56,0,0,1,7.16,8.49c-3.73,0-7.47-.07-11.2.18s-7.35.79-10.37,2.77a13.23,13.23,0,0,0-5.74,11.32,14.75,14.75,0,0,0,6.11,11.25,16.8,16.8,0,0,0,12.6,2.79c4.1-.71,8.08-3.1,9.81-6.87q0,3.06,0,6.12h13.88L621,56.27A30.42,30.42,0,0,0,620.68,51.32ZM606,67A7.72,7.72,0,0,1,603,71.06a7.81,7.81,0,0,1-4.43,1.34,6,6,0,0,1-4.07-1.3A4.32,4.32,0,0,1,593,67.66a4.41,4.41,0,0,1,1.45-3.45q1.46-1.29,5-1.29H606Z"/>
        </g>
      </g>
      <g>
        <path class="cls-2" d="M15.61,0H98.72a39.14,39.14,0,0,1,39.14,39.14v0A39.14,39.14,0,0,1,98.72,78.27H0a0,0,0,0,1,0,0V15.61A15.61,15.61,0,0,1,15.61,0Z"/>
        <polygon class="cls-3" points="47.29 105.6 0 78.27 47.29 78.27 47.29 105.6"/>
        <path class="cls-4" d="M16.17,39.14C28,16.49,36.78,12.4,42.55,12.76c5.45.33,12.43,9,26.38,26.38,17.43,21.69,20.93,26,26.38,26.38,5.77.35,14.54-3.74,26.38-26.38"/>
      </g>
    </g>
  </g>
</svg>
