<svg id="OBJECTS" xmlns="http://www.w3.org/2000/svg" viewBox="0 0 680.67 370.99">
  <defs>
    <style>
      .cls-1 {
        fill: #fceee3;
      }

      .cls-2 {
        fill: #716daa;
      }

      .cls-3 {
        fill: #9893bc;
      }

      .cls-4 {
        fill: #adaad6;
      }

      .cls-5 {
        fill: #22355d;
      }

      .cls-6 {
        fill: #151328;
      }

      .cls-7 {
        fill: #262444;
      }

      .cls-8 {
        fill: #2e4a79;
      }

      .cls-9 {
        fill: #f4ac96;
      }

      .cls-10, .cls-14, .cls-34, .cls-37, .cls-40 {
        fill: none;
        stroke-linecap: round;
      }

      .cls-10, .cls-40 {
        stroke: #be494f;
      }

      .cls-10, .cls-14, .cls-34, .cls-40 {
        stroke-miterlimit: 10;
      }

      .cls-11 {
        fill: #df776c;
      }

      .cls-12 {
        fill: #578ebc;
      }

      .cls-13 {
        fill: #2c2460;
      }

      .cls-14 {
        stroke: #2c2460;
      }

      .cls-15 {
        fill: #be494f;
      }

      .cls-16 {
        fill: #403a87;
      }

      .cls-17 {
        fill: #84bfef;
      }

      .cls-18 {
        fill: #6ea0d3;
      }

      .cls-19 {
        fill: #5e9dd1;
      }

      .cls-20 {
        fill: #356e9e;
      }

      .cls-21 {
        fill: #3b9382;
      }

      .cls-22 {
        fill: #317c6d;
      }

      .cls-23 {
        fill: #4fb29f;
      }

      .cls-24 {
        fill: #67cebb;
      }

      .cls-25 {
        fill: #96a3da;
      }

      .cls-26 {
        fill: #149fbe;
      }

      .cls-27 {
        fill: #008b9a;
      }

      .cls-28 {
        fill: #fdc25e;
      }

      .cls-29 {
        fill: #adadad;
      }

      .cls-30 {
        fill: #cacac8;
      }

      .cls-31 {
        fill: #dedede;
      }

      .cls-32 {
        fill: #282d33;
      }

      .cls-33 {
        fill: #ea8f7a;
      }

      .cls-34 {
        stroke: #282d33;
      }

      .cls-35 {
        fill: #505960;
      }

      .cls-36 {
        fill: #58110d;
      }

      .cls-37 {
        stroke: #58110d;
        stroke-linejoin: round;
      }

      .cls-38 {
        fill: #842020;
      }

      .cls-39 {
        fill: #264066;
      }

      .cls-40 {
        stroke-width: 0.5px;
      }

      .cls-41 {
        fill: #f2819f;
      }

      .cls-42 {
        fill: #ffd5e3;
      }

      .cls-43 {
        fill: #afb6e0;
      }

      .cls-44 {
        fill: #7e7aa5;
      }

      .cls-45 {
        fill: #fff;
      }
    </style>
  </defs>
  <g>
    <g>
      <path class="cls-1" d="M699.16,430.27H68.06c-15.34-20-32.43-53.95-25-100.62,12.69-79.38,137.9-50.31,208.33-133S435.89,24.43,560,83.69s7.27,197.89,104.25,244.84C724.82,357.86,715,401.58,699.16,430.27Z" transform="translate(-34.67 -64.5)"/>
      <path class="cls-1" d="M102.87,230.55s45.68,39.26,109-33.91c55.41-64,50.83-103.31,39.88-105.84s-20.14,36-58,75.07S85,204,102.87,230.55Z" transform="translate(-34.67 -64.5)"/>
    </g>
    <g>
      <g>
        <g>
          <polygon class="cls-2" points="444.42 205.27 471.61 365.76 478.85 365.76 451.66 205.27 444.42 205.27"/>
          <polygon class="cls-2" points="542.5 205.27 569.68 365.76 576.92 365.76 549.74 205.27 542.5 205.27"/>
          <polygon class="cls-2" points="425.28 93.26 530.52 93.26 557.71 253.75 452.47 253.75 425.28 93.26"/>
          <polygon class="cls-3" points="508.64 205.27 508.7 205.27 481.52 365.76 474.28 365.76 493.25 253.75 402.42 253.75 383.44 365.76 376.2 365.76 403.39 205.27 403.4 205.27 422.37 93.27 527.61 93.27 508.64 205.27"/>
          <polygon class="cls-4" points="420.85 161.65 433.73 161.65 420.48 239.87 407.6 239.87 420.85 161.65"/>
          <polygon class="cls-4" points="439.05 190.44 451.93 190.44 443.56 239.87 430.68 239.87 439.05 190.44"/>
          <polygon class="cls-4" points="470.59 152.12 483.47 152.12 468.61 239.87 455.73 239.87 470.59 152.12"/>
          <polygon class="cls-4" points="511.89 127.32 492.82 239.87 479.94 239.87 499.01 127.32 511.89 127.32"/>
          <rect class="cls-2" x="420.23" y="86.56" width="113.29" height="6.7"/>
        </g>
        <g>
          <g>
            <g>
              <polygon class="cls-5" points="545.14 226.24 526.49 351.9 508.58 351.9 512.07 222 545.14 226.24"/>
              <path class="cls-6" d="M563.21,427.47a4.14,4.14,0,0,1-3.93,2.82H521.94a29.65,29.65,0,0,1,25.12-13.88H561l2.33,8.65A4,4,0,0,1,563.21,427.47Z" transform="translate(-34.67 -64.5)"/>
              <path class="cls-7" d="M559.28,430.29H521.94a29.93,29.93,0,0,1,2-2.82h39.26A4.14,4.14,0,0,1,559.28,430.29Z" transform="translate(-34.67 -64.5)"/>
            </g>
            <g>
              <path class="cls-8" d="M600.9,416.41,597.41,286.5l-32.49,4.17L561.53,284l-15.65,5s2.86,6.72,8.26,8.69a68.35,68.35,0,0,0,11.62,2.56L583,416.41Z" transform="translate(-34.67 -64.5)"/>
              <path class="cls-6" d="M580.8,427.47a4.14,4.14,0,0,0,3.93,2.82h37.34A29.65,29.65,0,0,0,597,416.41H583.06l-2.34,8.65A4.1,4.1,0,0,0,580.8,427.47Z" transform="translate(-34.67 -64.5)"/>
              <path class="cls-7" d="M580.8,427.47a4.14,4.14,0,0,0,3.93,2.82h37.34a29.93,29.93,0,0,0-2-2.82Z" transform="translate(-34.67 -64.5)"/>
            </g>
          </g>
          <g>
            <g>
              <path class="cls-9" d="M519.2,215.51s1.71-2.17,1.09-8.74-3.41-7.07-3.78-6.88,0,6.88,0,6.88-9.12-10.29-12.1-11.66-.86,3.26,2.51,7.63c0,0-6.2-5.18-8.89-5.8s1,4.44,5.79,8.25c0,0-5.08-3.47-8-4.37s-.47,2.93,5.34,7.76c0,0-3.67-2.37-5.25-2.6s-3.81-.37,1.53,4,10.16,8.19,11.65,9.3S518.28,218.07,519.2,215.51Z" transform="translate(-34.67 -64.5)"/>
              <polygon class="cls-9" points="487.12 157.51 478.26 161.17 476.09 156.67 474.67 153.72 483.88 148.79 485.71 153.72 487.12 157.51"/>
              <path class="cls-10" d="M512.4,214.3a8.25,8.25,0,0,1,2.44-6.19" transform="translate(-34.67 -64.5)"/>
              <path class="cls-10" d="M512.71,206.63a11.8,11.8,0,0,1-7.76,4.76" transform="translate(-34.67 -64.5)"/>
              <path class="cls-11" d="M521.79,222l-8.87,3.65-2.16-4.49c3-.94,7.87-2.46,9.62-3Z" transform="translate(-34.67 -64.5)"/>
            </g>
            <path class="cls-12" d="M570,219.26l-26.91,46.2a15,15,0,0,1-2.21,2.78,9.78,9.78,0,0,1-14.35-.21,7.47,7.47,0,0,1-1.39-2.33l-11.72-32.51-3.59-10,12.5-5.13,1.86,4,10.45,22.32,12.76-21.86a14.11,14.11,0,0,1,19.28-5.16Z" transform="translate(-34.67 -64.5)"/>
            <g>
              <path class="cls-11" d="M558.94,190.86c-.66,2-3.48,2.94-6.31,2s-4.59-3.3-3.94-5.33,3.49-2.94,6.32-2S559.6,188.82,558.94,190.86Z" transform="translate(-34.67 -64.5)"/>
              <path class="cls-13" d="M551.52,177.07s-.37,7.89,1.79,12.64,1.05-14.05,1.35-15S551.52,177.07,551.52,177.07Z" transform="translate(-34.67 -64.5)"/>
              <path class="cls-9" d="M559.2,225.88c6.22,4.63,26.53-5.69,26.53-5.69s-2.72-1.82-4.65-8.19a24.15,24.15,0,0,1-.85-7.25,40.82,40.82,0,0,1,.85-7.53s-17.33-.91-17.64,5.69a29.68,29.68,0,0,1-1,6.61,17,17,0,0,1-1.4,3.62l-5.7,4.89S553,221.25,559.2,225.88Z" transform="translate(-34.67 -64.5)"/>
              <path class="cls-11" d="M562.42,209.52a21.79,21.79,0,0,0,17.81-4.77,40.82,40.82,0,0,1,.85-7.53s-17.33-.91-17.64,5.69A29.68,29.68,0,0,1,562.42,209.52Z" transform="translate(-34.67 -64.5)"/>
              <path class="cls-9" d="M553.24,187.11c0,.25,0,.49,0,.74h0c0,.28,0,.56,0,.85.34,9.89,3.63,18.33,12.21,17.91,13.8-.68,19.21-9.09,18.88-19a16.37,16.37,0,0,0-3.53-9.36,18.19,18.19,0,0,0-1.74-2c-3.81-3.82-9.12-6.17-13.91-6a10.7,10.7,0,0,0-6.17,2.06c-3.83,2.83-5.67,8.3-5.75,14.65C553.25,187,553.24,187.06,553.24,187.11Z" transform="translate(-34.67 -64.5)"/>
              <path class="cls-11" d="M553.25,187a10.94,10.94,0,0,1,1.44-4.44,36.51,36.51,0,0,0,20.38-1.89c.08.58,1.79,2.63,3.49,4a12.22,12.22,0,0,1,2.83,3.84,30.91,30.91,0,0,0,1.26-3.68c0-.36-1.15-4.23-1.83-6.49a18.19,18.19,0,0,0-1.74-2c-3.51-1-13.69-3.68-20.08-4C555.17,175.15,553.33,180.62,553.25,187Z" transform="translate(-34.67 -64.5)"/>
              <path class="cls-13" d="M547.71,174.91a8.15,8.15,0,0,0,4.11,4.69c5.46,2.63,20.52,1.42,23.75-1,0,0,.51,1.52,3.24,4.35s3.14,8.28,2.73,9.5,5.57,0,5.57,0,7.25-20.32-6-24.77c0,0,.26-6.37-10-7.28s-14.58,4.6-18.3,4.85C547.8,165.59,546.18,170.71,547.71,174.91Z" transform="translate(-34.67 -64.5)"/>
              <path class="cls-10" d="M561.54,191.23a7.88,7.88,0,0,0-.44,4.75" transform="translate(-34.67 -64.5)"/>
              <path class="cls-14" d="M558.26,185.56a3.71,3.71,0,0,0-4.77.24" transform="translate(-34.67 -64.5)"/>
              <path class="cls-14" d="M570.5,185.56a3.69,3.69,0,0,0-4.76.24" transform="translate(-34.67 -64.5)"/>
              <path class="cls-15" d="M562.38,199.41l8.61-2.73a4.39,4.39,0,0,1-3.34,4.95C563.58,203,562.38,199.41,562.38,199.41Z" transform="translate(-34.67 -64.5)"/>
              <path class="cls-16" d="M547.71,174.91a6.7,6.7,0,0,1,6.62-7.72c5-.15,10.6-5.3,17.42-4.47s9.33,4.95,9.33,4.95.26-6.37-10-7.28-14.58,4.6-18.3,4.85C547.8,165.59,546.18,170.71,547.71,174.91Z" transform="translate(-34.67 -64.5)"/>
              <path class="cls-13" d="M566.36,189.2c0,.74.3,1.34.66,1.34s.66-.6.66-1.34-.29-1.34-.66-1.34S566.36,188.46,566.36,189.2Z" transform="translate(-34.67 -64.5)"/>
              <path class="cls-13" d="M554.66,189.2c0,.74.3,1.34.66,1.34s.66-.6.66-1.34-.29-1.34-.66-1.34S554.66,188.46,554.66,189.2Z" transform="translate(-34.67 -64.5)"/>
              <path class="cls-9" d="M579.78,195.59c.66,2,3.48,2.94,6.31,2s4.59-3.3,3.94-5.33-3.48-2.94-6.31-2S579.12,193.55,579.78,195.59Z" transform="translate(-34.67 -64.5)"/>
            </g>
            <polygon class="cls-17" points="489.54 157.53 477.65 169.85 475.18 158.7 487.68 153.57 489.54 157.53"/>
            <g>
              <path class="cls-18" d="M599,285.31a5.53,5.53,0,0,1-4.11,5.34,92,92,0,0,1-47-.3,4.07,4.07,0,0,1-3-4.09l.12-3.09.7-17.92,1.42-36.31c.21-6,4.41-11.92,10.24-13.48l2-.9,4.74,6.4,1.62,2.17,2.73-2L581.08,212l11,5a8.66,8.66,0,0,1,5.06,7.6l.91,29.72.1,3.27Z" transform="translate(-34.67 -64.5)"/>
              <path class="cls-19" d="M599,285.31a5.53,5.53,0,0,1-4.11,5.34,92,92,0,0,1-47-.3,4.07,4.07,0,0,1-3-4.09l.12-3.09.7-17.92c4,4.64,10.72,8,22,5.37,25.65-6.05,23.88-25.46,23.88-25.46l6.47,9.16.1,3.27Z" transform="translate(-34.67 -64.5)"/>
              <path class="cls-20" d="M567.69,270.62l-3.4,4.28a2,2,0,0,1-3.36-.3l-2.21-4.1a9.16,9.16,0,0,1-1-5.53l5-38,2.18-.16,2.63.4,2.12,37.16A9.14,9.14,0,0,1,567.69,270.62Z" transform="translate(-34.67 -64.5)"/>
              <polygon class="cls-20" points="536.57 158.51 532.88 162.76 528.08 162.52 527.07 159.17 526.86 157.76 529.46 156.45 531.07 158.63 533.8 156.65 536.57 158.51"/>
              <path class="cls-17" d="M565.74,223.13a11,11,0,0,1,7.42,4.89l11.2-14.53a3.34,3.34,0,0,0-3.37-1.81Z" transform="translate(-34.67 -64.5)"/>
              <path class="cls-17" d="M565.74,223.13a6,6,0,0,0-5.59,4.13l-2.83-12.15s1.27-2.11,3-1.31Z" transform="translate(-34.67 -64.5)"/>
            </g>
            <g>
              <g>
                <path class="cls-9" d="M576.62,279.58l-2.38,2.28s-7.5-3.78-10.28-3.6c0,0-5.21,1.12-6.43,3.53s-.89,5.19,1.43,5.38a2.47,2.47,0,0,0,2.88,2.09s.22,3,3.28,1.78a2.05,2.05,0,0,0,2.31,1.86A4.48,4.48,0,0,0,570.9,291s2.92,1.58,6.46-1.42l4.34-2.9Z" transform="translate(-34.67 -64.5)"/>
                <path class="cls-10" d="M559.09,286.7a11,11,0,0,1,5.53-5.35" transform="translate(-34.67 -64.5)"/>
                <path class="cls-10" d="M561.85,288.88a11.35,11.35,0,0,1,5.31-4.77" transform="translate(-34.67 -64.5)"/>
                <path class="cls-10" d="M565.4,290.58a9.63,9.63,0,0,1,4.34-3.62" transform="translate(-34.67 -64.5)"/>
                <path class="cls-10" d="M570.12,289.06a2.39,2.39,0,0,0,.65,1.69" transform="translate(-34.67 -64.5)"/>
                <path class="cls-10" d="M569,290.39a1.76,1.76,0,0,0,1.4-.24" transform="translate(-34.67 -64.5)"/>
              </g>
              <path class="cls-12" d="M608.49,271.23,588.87,284l-6.73,4.39-7-10,2.56-2.25,15.82-13.93L585.7,233.5c-1.09-5,.52-15,5.54-16.08,0,0,6.43-1,12.2,11.8l4.93,20,3.28,13.33A8.25,8.25,0,0,1,608.49,271.23Z" transform="translate(-34.67 -64.5)"/>
              <polygon class="cls-17" points="555.39 220.35 547.47 223.91 540.52 213.96 544.43 210.52 555.39 220.35"/>
            </g>
          </g>
        </g>
      </g>
      <g>
        <g>
          <g>
            <path class="cls-21" d="M662.68,371.85s-11.4-28.79-5.43-65.17,27.7-50,27.7-50,7.6,34.21-2.17,60.28-11.14,54.85-11.14,54.85Z" transform="translate(-34.67 -64.5)"/>
            <path class="cls-22" d="M664.32,369.49s-5.27-57.65,12.88-93.83c0,0-13.54,41.61-8.64,93.83Z" transform="translate(-34.67 -64.5)"/>
            <path class="cls-23" d="M668.58,374.51s-1.23-40.9,14.2-57.51,32.55-18.59,32.55-18.59-2.52,23.59-12.77,35.95S678.83,359.92,678,371.85Z" transform="translate(-34.67 -64.5)"/>
            <path class="cls-23" d="M664.3,374.51s1.23-40.9-14.2-57.51-32.55-18.59-32.55-18.59,2.52,23.59,12.77,35.95,23.73,25.56,24.57,37.49Z" transform="translate(-34.67 -64.5)"/>
            <path class="cls-24" d="M669.59,376.37c.85-1.68-.63-34.73,25.07-58.11,0,0-18.75,22.8-21.27,56.25Z" transform="translate(-34.67 -64.5)"/>
            <path class="cls-24" d="M663.08,376.37c-.84-1.68.63-34.73-25.06-58.11,0,0,18.74,22.8,21.27,56.25Z" transform="translate(-34.67 -64.5)"/>
          </g>
          <path class="cls-4" d="M700.83,368.37l-1.76,9.69-2.2,12.22L691.67,419a15.79,15.79,0,0,1-15.54,13H657.58a15.78,15.78,0,0,1-15.53-13l-5.2-28.71-2.21-12.22-1.76-9.69Z" transform="translate(-34.67 -64.5)"/>
          <polygon class="cls-2" points="664.41 313.56 662.2 325.77 602.18 325.77 599.97 313.56 664.41 313.56"/>
        </g>
        <g>
          <g>
            <path class="cls-21" d="M87.32,371.85s11.4-28.79,5.43-65.17-27.7-50-27.7-50-7.6,34.21,2.17,60.28,11.13,54.85,11.13,54.85Z" transform="translate(-34.67 -64.5)"/>
            <path class="cls-22" d="M85.68,369.49S91,311.84,72.8,275.66c0,0,13.54,41.61,8.64,93.83Z" transform="translate(-34.67 -64.5)"/>
            <path class="cls-23" d="M81.42,374.51s1.23-40.9-14.2-57.51-32.55-18.59-32.55-18.59S37.19,322,47.44,334.36,71.17,359.92,72,371.85Z" transform="translate(-34.67 -64.5)"/>
            <path class="cls-23" d="M85.7,374.51S84.47,333.61,99.9,317s32.55-18.59,32.55-18.59-2.52,23.59-12.77,35.95S96,359.92,95.11,371.85Z" transform="translate(-34.67 -64.5)"/>
            <path class="cls-24" d="M80.41,376.37c-.85-1.68.63-34.73-25.07-58.11,0,0,18.75,22.8,21.27,56.25Z" transform="translate(-34.67 -64.5)"/>
            <path class="cls-24" d="M86.92,376.37c.84-1.68-.63-34.73,25.06-58.11,0,0-18.74,22.8-21.27,56.25Z" transform="translate(-34.67 -64.5)"/>
          </g>
          <path class="cls-4" d="M49.17,368.37l1.76,9.69,2.2,12.22L58.33,419a15.79,15.79,0,0,0,15.54,13H92.42A15.78,15.78,0,0,0,108,419l5.2-28.71,2.21-12.22,1.76-9.69Z" transform="translate(-34.67 -64.5)"/>
          <polygon class="cls-2" points="16.26 313.56 18.47 325.77 78.49 325.77 80.69 313.56 16.26 313.56"/>
        </g>
      </g>
      <g>
        <g>
          <rect class="cls-25" x="334.09" y="268.21" width="5.25" height="97.55"/>
          <g>
            <g>
              <polygon class="cls-26" points="264.21 307.77 255.55 365.76 249.72 365.76 258.56 307.77 264.21 307.77"/>
              <polygon class="cls-26" points="259.85 304.33 254.12 304.33 251.58 287.36 250.64 281.08 256.3 281.08 257.26 287.36 259.85 304.33"/>
              <polygon class="cls-26" points="286.23 304.33 280.5 304.33 277.97 287.36 277.03 281.08 282.69 281.08 283.64 287.36 286.23 304.33"/>
              <polygon class="cls-27" points="281.18 307.77 272.52 365.76 266.69 365.76 275.53 307.77 281.18 307.77"/>
              <polygon class="cls-27" points="317.95 307.77 326.62 365.76 332.45 365.76 323.61 307.77 317.95 307.77"/>
              <polygon class="cls-26" points="293.74 307.77 302.4 365.76 308.23 365.76 299.39 307.77 293.74 307.77"/>
              <polygon class="cls-27" points="256.3 281.08 257.26 287.36 251.58 287.36 250.64 281.08 256.3 281.08"/>
              <polygon class="cls-28" points="283.64 287.36 277.97 287.36 277.03 281.08 282.69 281.08 283.64 287.36"/>
              <polygon class="cls-27" points="277.62 244.8 238 244.8 244.41 281.92 284.02 281.92 277.62 244.8"/>
              <polygon class="cls-26" points="282.02 244.8 242.4 244.8 248.81 281.92 288.43 281.92 282.02 244.8"/>
              <path class="cls-26" d="M361.81,374.58H284.74a4.25,4.25,0,0,1-4.25-4.25h0a4.24,4.24,0,0,1,4.25-4.24h77.07a4.24,4.24,0,0,1,4.25,4.24h0A4.25,4.25,0,0,1,361.81,374.58Z" transform="translate(-34.67 -64.5)"/>
            </g>
            <g>
              <g>
                <g>
                  <g>
                    <path class="cls-29" d="M418.2,430.26H387.11c-.06-.62-.09-1.2-.1-1.76-.13-5.69,1.85-7.8,1.85-7.8l11.82-1.48c10.13,1,14.81,6.42,16.59,9.28A11.69,11.69,0,0,1,418.2,430.26Z" transform="translate(-34.67 -64.5)"/>
                    <path class="cls-30" d="M418.2,430.26H387.11c-.06-.62-.09-1.2-.1-1.76h30.26A11.69,11.69,0,0,1,418.2,430.26Z" transform="translate(-34.67 -64.5)"/>
                    <path class="cls-30" d="M402.17,422.53a.68.68,0,0,1-.44-.16.71.71,0,0,1-.11-1,8.21,8.21,0,0,1,4.41-2.52.69.69,0,0,1,.31,1.35,6.89,6.89,0,0,0-3.63,2A.7.7,0,0,1,402.17,422.53Z" transform="translate(-34.67 -64.5)"/>
                    <path class="cls-30" d="M404.72,424a.73.73,0,0,1-.46-.17.7.7,0,0,1-.07-1,8.25,8.25,0,0,1,4.48-2.37.7.7,0,0,1,.27,1.37,7,7,0,0,0-3.7,1.91A.67.67,0,0,1,404.72,424Z" transform="translate(-34.67 -64.5)"/>
                    <path class="cls-30" d="M407.09,425.31a.67.67,0,0,1-.46-.18.68.68,0,0,1-.06-1,8.23,8.23,0,0,1,4.54-2.28.69.69,0,0,1,.8.57.7.7,0,0,1-.57.81,7,7,0,0,0-3.73,1.82A.68.68,0,0,1,407.09,425.31Z" transform="translate(-34.67 -64.5)"/>
                  </g>
                  <path class="cls-5" d="M346.9,329.62s29.81,4.78,46.89,13.6c0,0,7.12,27.39,9.66,75.79l-16,3.65-12.24-55.15-31.1-9.85-9.65-5.06Z" transform="translate(-34.67 -64.5)"/>
                </g>
                <g>
                  <g>
                    <path class="cls-29" d="M366.71,435.5l-28.49-12.44c.19-.59.4-1.14.61-1.65,2.16-5.28,4.82-6.42,4.82-6.42l11.43,3.37c8.89,4.95,11,11.82,11.49,15.15A11.2,11.2,0,0,1,366.71,435.5Z" transform="translate(-34.67 -64.5)"/>
                    <path class="cls-30" d="M366.71,435.5l-28.49-12.44c.19-.59.4-1.14.61-1.65l27.74,12.1A11.2,11.2,0,0,1,366.71,435.5Z" transform="translate(-34.67 -64.5)"/>
                    <path class="cls-30" d="M355.11,422a.66.66,0,0,1-.33-.31.69.69,0,0,1,.29-.94,8.21,8.21,0,0,1,5-.55.7.7,0,1,1-.26,1.37,7,7,0,0,0-4.14.41A.7.7,0,0,1,355.11,422Z" transform="translate(-34.67 -64.5)"/>
                    <path class="cls-30" d="M356.87,424.34a.69.69,0,0,1,0-1.26,8.29,8.29,0,0,1,5.06-.38.7.7,0,0,1-.3,1.36,6.86,6.86,0,0,0-4.15.28A.69.69,0,0,1,356.87,424.34Z" transform="translate(-34.67 -64.5)"/>
                    <path class="cls-30" d="M358.51,426.52a.7.7,0,0,1-.35-.35.69.69,0,0,1,.34-.92,8.19,8.19,0,0,1,5.06-.27.69.69,0,0,1-.33,1.35,7,7,0,0,0-4.15.18A.71.71,0,0,1,358.51,426.52Z" transform="translate(-34.67 -64.5)"/>
                  </g>
                  <path class="cls-8" d="M347.07,328.58l-2.17,12.76s29.37,3.94,35,11.26-20,68.09-20,68.09l-19.38-6,14.25-47.46s-12.61-.52-21.8-.14-26.47.33-30.1-9.8S306,327.46,306,327.46Z" transform="translate(-34.67 -64.5)"/>
                </g>
              </g>
              <g>
                <g>
                  <path class="cls-11" d="M370.54,322.61l-1.71,6.13h-7.59l-4.11-18.2-1.05-4.66L368,301.52l.75,2.35,1.53,4.78A24.4,24.4,0,0,1,370.54,322.61Z" transform="translate(-34.67 -64.5)"/>
                  <polygon class="cls-11" points="334.08 239.37 322.47 246.04 321.42 241.38 333.33 237.02 334.08 239.37"/>
                  <path class="cls-29" d="M355.49,272.21s7.15,3.69,10.06,13.66,5.25,15.93,5.25,15.93l-17.25,5.12s1.59-31.43,1.59-32.27A15.71,15.71,0,0,1,355.49,272.21Z" transform="translate(-34.67 -64.5)"/>
                </g>
                <g>
                  <path class="cls-30" d="M358.11,294.66l-9.34,37.11H302.86s8.92-47.38,13.6-52.54c2.77-3,7.44-5.54,12.5-7.21a45.07,45.07,0,0,1,10.63-2.14,34,34,0,0,1,4.74,0,43.51,43.51,0,0,1,11.16,2.35C363.52,275.5,358.11,294.66,358.11,294.66Z" transform="translate(-34.67 -64.5)"/>
                  <path class="cls-31" d="M352.92,280.84c-.13,3.75-3.21,6.84-11,3.8S330.47,276.71,329,272a45.45,45.45,0,0,1,10.63-2.1,34,34,0,0,1,4.74,0c2.93.8,5.43,2,6.56,3.71A14.62,14.62,0,0,1,352.92,280.84Z" transform="translate(-34.67 -64.5)"/>
                </g>
                <g>
                  <path class="cls-11" d="M355.52,252.5c.66,2,3.48,2.94,6.31,2s4.59-3.3,3.94-5.33-3.49-2.94-6.31-2S354.86,250.47,355.52,252.5Z" transform="translate(-34.67 -64.5)"/>
                  <path class="cls-32" d="M361.22,237.5s2,8.76,0,13.35-4.22-8.17-4.15-8.19.53-4.85.75-4.65S361.22,237.5,361.22,237.5Z" transform="translate(-34.67 -64.5)"/>
                  <path class="cls-33" d="M351.23,266.53a29.13,29.13,0,0,0-.36,6.68c.16,2.45-.14,7.11-.14,7.11a4.21,4.21,0,0,1-4.6,3.24c-5.89-.3-12.13-7-14.75-10.15,0-.06.08-.13.11-.2a35.7,35.7,0,0,0,2.94-8.36,41.46,41.46,0,0,0,.73-7.54S352.29,260,351.23,266.53Z" transform="translate(-34.67 -64.5)"/>
                  <path class="cls-11" d="M350.87,273.21a21.83,21.83,0,0,1-16.45-8.36,40.92,40.92,0,0,0,.74-7.54s17.13,2.7,16.07,9.22A29.71,29.71,0,0,0,350.87,273.21Z" transform="translate(-34.67 -64.5)"/>
                  <path class="cls-33" d="M361.23,248.75c0,.25,0,.5,0,.75h0c0,.28,0,.56,0,.84-.34,9.9-3.63,18.34-12.2,17.91-13.81-.68-19.23-9.08-18.89-19a16.46,16.46,0,0,1,3.52-9.37,20.43,20.43,0,0,1,1.75-2c3.81-3.82,9.12-6.18,13.91-6a10.85,10.85,0,0,1,6.17,2.06,11.81,11.81,0,0,1,3.41,4.09,21.46,21.46,0,0,1,2.24,8.3c.05.74.09,1.5.1,2.26C361.21,248.66,361.23,248.71,361.23,248.75Z" transform="translate(-34.67 -64.5)"/>
                  <path class="cls-10" d="M352.92,252.87a7.92,7.92,0,0,1,.44,4.76" transform="translate(-34.67 -64.5)"/>
                  <path class="cls-34" d="M349.18,246.74a3.67,3.67,0,0,0-4.76.41" transform="translate(-34.67 -64.5)"/>
                  <path class="cls-34" d="M360.65,246.74a3.65,3.65,0,0,0-4.75.41" transform="translate(-34.67 -64.5)"/>
                  <path class="cls-32" d="M360.25,250.26c0,.67-.39,1.21-.86,1.21s-.87-.54-.87-1.21.39-1.21.87-1.21S360.25,249.59,360.25,250.26Z" transform="translate(-34.67 -64.5)"/>
                  <path class="cls-32" d="M348.53,250.09c0,.67-.39,1.21-.87,1.21s-.86-.54-.86-1.21.39-1.21.86-1.21S348.53,249.42,348.53,250.09Z" transform="translate(-34.67 -64.5)"/>
                  <path class="cls-10" d="M344.9,258.47a8.62,8.62,0,0,0,6.83,3.23" transform="translate(-34.67 -64.5)"/>
                  <path class="cls-11" d="M361.11,246.35a14.91,14.91,0,0,0-1.54-3.31c-9.42,2.9-21.42,2.06-21.42,2.06a17,17,0,0,1-3.89,6.2l-2.42-2.25,4.31-8.64s14.64-3.66,16.14-3.66a15.45,15.45,0,0,1,6.58,1.3A21.46,21.46,0,0,1,361.11,246.35Z" transform="translate(-34.67 -64.5)"/>
                  <path class="cls-32" d="M361.53,239.11a9,9,0,0,1-.89.84c-5.29,4.35-24.74,3.37-24.74,3.37-.1,9.55-4.29,10.23-4.29,10.23s-1.27.7-4.23,0-6.05-12.67-5.2-15.7,5.49-2.88,4.5-5.95,2.53-5.37,6.61-5.09a6.15,6.15,0,0,0,4.09-.76h0a2,2,0,0,0,.39-.27l.06,0a2.92,2.92,0,0,1,.28-.21c.77-.62,1.6-1.44,2.9-2.43,3.36-2.58,7.6,1,11.89.62s5.41-1.69,8.3,1.4C363.94,228,365.71,234.7,361.53,239.11Z" transform="translate(-34.67 -64.5)"/>
                  <path class="cls-33" d="M334.68,257.23c-.66,2-3.48,2.94-6.31,2s-4.59-3.3-3.94-5.34,3.49-2.93,6.32-2S335.34,255.2,334.68,257.23Z" transform="translate(-34.67 -64.5)"/>
                  <path class="cls-35" d="M361.53,239.11c3-7.68-1.76-14.48-5.32-13.63a16.63,16.63,0,0,1-10.55-1.11c-2.66-1.31-5.88-.06-7.53,1.16.77-.62,1.6-1.44,2.9-2.43,3.36-2.58,7.6,1,11.89.62s5.41-1.69,8.3,1.4C363.94,228,365.71,234.7,361.53,239.11Z" transform="translate(-34.67 -64.5)"/>
                </g>
                <g>
                  <polygon class="cls-11" points="336.5 249.29 305.04 255.14 305.04 264.24 328.42 264.24 336.5 249.29"/>
                  <path class="cls-11" d="M326.47,324.75a26,26,0,0,1-3.2,4c-1.17,1-1.74-.79-1.51-1.77,0,0-.7,1.33-1.72,1.43s-1.06-2.05-.81-2.92c0,0-1.23,1.72-2.19,1.74s0-4.18,1.65-6.3a7,7,0,0,1,3.35-2.59,5,5,0,0,0-3.61,1.46c-1.41,1.54-1.9,2.68-3,2.73s0-2.23.28-3,1.8-3,6-4.24,13.78,4.76,13.78,4.76l7.53-.76-1.81,9.43h-8.06A19.28,19.28,0,0,1,326.47,324.75Z" transform="translate(-34.67 -64.5)"/>
                </g>
                <g>
                  <g>
                    <path class="cls-33" d="M370.53,320.12l-1.27,8.62H330.61a7.4,7.4,0,0,1-7.06-5.16l-1.69-5.33-2.93-9.2,12.85-5.23L334.7,311l1.58,3.85Z" transform="translate(-34.67 -64.5)"/>
                    <path class="cls-11" d="M334.7,311c-2.85,1.59-9,5.08-12.84,7.3l-2.93-9.2,12.85-5.23Z" transform="translate(-34.67 -64.5)"/>
                    <path class="cls-29" d="M315.29,313.76c.07.47,21.29-5.06,21.29-5.06s-5-18.86-8.91-26.17-9.9-5.22-10.84-4.1S310.69,283.65,315.29,313.76Z" transform="translate(-34.67 -64.5)"/>
                  </g>
                  <g>
                    <path class="cls-33" d="M378.73,324.75a26,26,0,0,0,3.2,4c1.17,1,1.74-.79,1.51-1.77,0,0,.7,1.33,1.72,1.43s1.06-2.05.81-2.92c0,0,1.23,1.72,2.2,1.74s-.05-4.18-1.66-6.3a7,7,0,0,0-3.35-2.59,5,5,0,0,1,3.61,1.46c1.41,1.54,1.9,2.68,3,2.73s0-2.23-.29-3-1.8-3-6-4.24-13.78,4.76-13.78,4.76l-7.53-.76,1.81,9.43h8.07A19.28,19.28,0,0,0,378.73,324.75Z" transform="translate(-34.67 -64.5)"/>
                    <path class="cls-10" d="M383,325.93a9.91,9.91,0,0,0-2.74-3.37" transform="translate(-34.67 -64.5)"/>
                    <path class="cls-10" d="M385.77,324.69a13.37,13.37,0,0,0-3.15-4.29" transform="translate(-34.67 -64.5)"/>
                  </g>
                </g>
              </g>
            </g>
          </g>
          <g>
            <g>
              <polygon class="cls-26" points="148.42 307.77 139.76 365.76 133.93 365.76 142.77 307.77 148.42 307.77"/>
              <polygon class="cls-26" points="144.06 304.33 138.33 304.33 135.79 287.36 134.85 281.08 140.51 281.08 141.47 287.36 144.06 304.33"/>
              <polygon class="cls-26" points="170.44 304.33 164.71 304.33 162.18 287.36 161.24 281.08 166.9 281.08 167.85 287.36 170.44 304.33"/>
              <polygon class="cls-27" points="165.39 307.77 156.73 365.76 150.9 365.76 159.74 307.77 165.39 307.77"/>
              <polygon class="cls-27" points="202.16 307.77 210.83 365.76 216.66 365.76 207.82 307.77 202.16 307.77"/>
              <polygon class="cls-26" points="177.95 307.77 186.61 365.76 192.44 365.76 183.6 307.77 177.95 307.77"/>
              <polygon class="cls-27" points="140.51 281.08 141.47 287.36 135.79 287.36 134.85 281.08 140.51 281.08"/>
              <polygon class="cls-28" points="167.85 287.36 162.18 287.36 161.24 281.08 166.9 281.08 167.85 287.36"/>
              <polygon class="cls-27" points="161.83 244.8 122.21 244.8 128.62 281.92 168.24 281.92 161.83 244.8"/>
              <polygon class="cls-26" points="166.23 244.8 126.61 244.8 133.02 281.92 172.64 281.92 166.23 244.8"/>
              <path class="cls-26" d="M246,374.58H169a4.25,4.25,0,0,1-4.25-4.25h0a4.24,4.24,0,0,1,4.25-4.24H246a4.24,4.24,0,0,1,4.25,4.24h0A4.25,4.25,0,0,1,246,374.58Z" transform="translate(-34.67 -64.5)"/>
            </g>
            <g>
              <g>
                <path class="cls-36" d="M207.5,228.26l-2.7-1.3s-8.07-.34-9.94,9.46c-1.74,9.15-1.42,19.69.45,26.83a8.06,8.06,0,0,0,7.78,6.05h24.77c1.66,0,1.78-2.06,1.55-3.7-.7-5.15,4.14-14.39-.41-27.8-.35-1-.66-.86-.66-.86Z" transform="translate(-34.67 -64.5)"/>
                <path class="cls-9" d="M218.05,284c4.76-2.6,5.49-8.66,5.49-8.66l-1-3s-.1-.16-.27-.47a19,19,0,0,1-1.75-10.8c.72-7.23-11.7-2.31-11.7-2.31s-.51,3.21-1.14,6.55a61.56,61.56,0,0,1-1.46,6.45C205.19,274.79,213.28,286.63,218.05,284Z" transform="translate(-34.67 -64.5)"/>
                <path class="cls-11" d="M207.66,265.3a17.51,17.51,0,0,0,14.59,6.56,19,19,0,0,1-1.75-10.8c.72-7.23-11.7-2.31-11.7-2.31S208.29,262,207.66,265.3Z" transform="translate(-34.67 -64.5)"/>
                <path class="cls-11" d="M233.71,250c.19,1.91-1.77,3.66-4.37,3.91s-4.86-1.07-5.05-3,1.77-3.65,4.37-3.9S233.52,248.13,233.71,250Z" transform="translate(-34.67 -64.5)"/>
                <path class="cls-9" d="M219.24,267c3.93-.28,8.66-5.66,10.12-13.46a27.93,27.93,0,0,0,.45-3.75h0a21.22,21.22,0,0,0-.41-5.6c-.71-3.3-2.28-5.61-4.43-6.09-10.16-2.25-16.33-1-20,2a13.51,13.51,0,0,0-4.5,8.29C199,256.19,209.1,267.74,219.24,267Z" transform="translate(-34.67 -64.5)"/>
                <path class="cls-11" d="M203.18,249.79c.88-5,8.22-6.43,15.3-6.57s8.81-1.16,8.81-1.16a7,7,0,0,1,2.12,2.12c-.71-3.3-2.28-5.61-4.43-6.09-10.16-2.25-16.33-1-20,2C201.94,245.83,202.59,253.17,203.18,249.79Z" transform="translate(-34.67 -64.5)"/>
                <path class="cls-36" d="M202.22,254.76l.08,0S202.23,254.93,202.22,254.76Z" transform="translate(-34.67 -64.5)"/>
                <path class="cls-36" d="M225.92,240.5h0a10.68,10.68,0,0,1-1.92.32c-11.17,1-19.07,1.45-20.62,8.19a45.65,45.65,0,0,0-1.13,5.74l-4.64-2.27s-3.09-5.27-1.73-16.07,9-9.46,9-9.46h0c.28-.15,6-3.31,15.6-1.63C229.6,226.94,234.49,238.28,225.92,240.5Z" transform="translate(-34.67 -64.5)"/>
                <path class="cls-9" d="M195.47,253.51c-.19,1.9,1.77,3.65,4.37,3.91s4.86-1.08,5-3-1.77-3.65-4.37-3.91S195.66,251.61,195.47,253.51Z" transform="translate(-34.67 -64.5)"/>
                <path class="cls-10" d="M220.34,252.76a7.88,7.88,0,0,1,.44,4.75" transform="translate(-34.67 -64.5)"/>
                <path class="cls-37" d="M223.62,247.09a3.7,3.7,0,0,1,4.77.24" transform="translate(-34.67 -64.5)"/>
                <path class="cls-37" d="M211.37,247.09a3.71,3.71,0,0,1,4.77.24" transform="translate(-34.67 -64.5)"/>
                <path class="cls-32" d="M215.51,250.73c0,.74-.29,1.34-.66,1.34s-.66-.6-.66-1.34.3-1.34.66-1.34S215.51,250,215.51,250.73Z" transform="translate(-34.67 -64.5)"/>
                <path class="cls-32" d="M227.22,250.73c0,.74-.3,1.34-.66,1.34s-.67-.6-.67-1.34.3-1.34.67-1.34S227.22,250,227.22,250.73Z" transform="translate(-34.67 -64.5)"/>
                <path class="cls-10" d="M215.22,260.19a9,9,0,0,0,5.86.85" transform="translate(-34.67 -64.5)"/>
                <path class="cls-38" d="M225.92,240.5c.35-.17,4.52-2.22.08-9.29-4.63-7.36-21.2-4.25-21.2-4.25h0c.28-.15,6-3.31,15.6-1.63C229.6,226.94,234.49,238.28,225.92,240.5Z" transform="translate(-34.67 -64.5)"/>
              </g>
              <g>
                <path class="cls-11" d="M243.25,355.55l10.07,1.58,7.7,62.69,10.65-.86L270.07,346a7,7,0,0,0-5.21-6.57l-15.23-4.08Z" transform="translate(-34.67 -64.5)"/>
                <path class="cls-11" d="M271.4,416.69l.3,2.53s16.34,2.8,16.89,11H269l-2.18-1.45-.73,1.45h-6.79s-.12-5.79,1.88-8.76l-.27-2.42Z" transform="translate(-34.67 -64.5)"/>
                <path class="cls-39" d="M288.59,430.27H269l-2.18-1.47-.74,1.47h-6.78a22.6,22.6,0,0,1,.89-6.63c1.16.62,5,2.23,12.46,1.77,6.33-.38,8.56-1.9,9.33-2.81C285.39,424.34,288.36,426.82,288.59,430.27Z" transform="translate(-34.67 -64.5)"/>
              </g>
              <g>
                <path class="cls-9" d="M236.85,367.32h2.3l3.5,52.71,10.67-.81,6-63.25A6.89,6.89,0,0,0,253.8,349l-13-2.62Z" transform="translate(-34.67 -64.5)"/>
                <path class="cls-9" d="M270.21,430.27H250.64l-2.18-1.47-.74,1.47h-6.78a22.4,22.4,0,0,1,.9-6.63,8.6,8.6,0,0,1,1-2.05l-.21-2.48,11-2.55-.26,2.65a41.35,41.35,0,0,1,10.3,3.39C267,424.34,270,426.82,270.21,430.27Z" transform="translate(-34.67 -64.5)"/>
                <path class="cls-8" d="M270.21,430.27H250.64l-2.18-1.47-.74,1.47h-6.78a22.4,22.4,0,0,1,.9-6.63c1.15.62,5,2.23,12.45,1.77,6.33-.38,8.56-1.9,9.33-2.81C267,424.34,270,426.82,270.21,430.27Z" transform="translate(-34.67 -64.5)"/>
              </g>
              <g>
                <path class="cls-9" d="M230.58,277.35s3.45,2.3,6,10.35,6,15.23,7.33,15.94S261,288,261,288l3.88,6.72s-7.41,13.42-14,20.31-8.62,6.32-10.49,5.61S229.72,311,229.72,311Z" transform="translate(-34.67 -64.5)"/>
                <path class="cls-9" d="M261.2,288.84a3.25,3.25,0,0,1-.41-2.49,76.52,76.52,0,0,1,3-10c1.56-3.6,2.43-3.75,2.85-3.7s1.32.71-1.53,7.6c0,0,2.07-2,3.07.33a2,2,0,0,1,2.42,1.84,4.07,4.07,0,0,1,1.74,4.17c-.54,2.75-2.26,1.23-2.26,1.23a4.81,4.81,0,0,1-1.9,5.07c-2.77,1.89-3.33,1.83-3.33,1.83Z" transform="translate(-34.67 -64.5)"/>
                <path class="cls-40" d="M261.71,286.79s3.18-4.36,4.3-5,1.33.32.52,2.07a8.53,8.53,0,0,0-.86,2.39s1.5,3.05-.73,5.29" transform="translate(-34.67 -64.5)"/>
                <path class="cls-40" d="M268.51,281.1s.1,3.9-1.06,5.13-1.59-.3-1.54-.87" transform="translate(-34.67 -64.5)"/>
                <path class="cls-40" d="M270.56,282.65s0,3.29-1.12,4.11a1,1,0,0,1-1.73-.88" transform="translate(-34.67 -64.5)"/>
              </g>
              <g>
                <g>
                  <g>
                    <path class="cls-41" d="M235.09,296.66c-.72-10.48-3-16.6-3.79-18.37a1.55,1.55,0,0,0-.25-.56c-2.1-2.46-8.45-5.28-8.45-5.28-.85,4.08-4.64,8.05-4.64,8.05-5.49-1.37-11.77-9.79-11.77-9.79s-11.06,2.64-13.95,5.56-3.59,48.54,6.16,52,32,.58,32,.58c0-5.06-1.15-11.17-1-16.91,0-.16,0-.32,0-.49C233.55,309.77,235.81,307.21,235.09,296.66Z" transform="translate(-34.67 -64.5)"/>
                    <path class="cls-42" d="M218,280.5a15.57,15.57,0,0,1-9,4c-5.78.68-5.3-13.17-4.24-13.81a2,2,0,0,1,1.89-.19A40.18,40.18,0,0,0,218,280.5Z" transform="translate(-34.67 -64.5)"/>
                    <path class="cls-42" d="M218,280.5a24,24,0,0,0,7.27,2.63c3.74.58-.48-9.85-1.17-10.39a2.09,2.09,0,0,0-1.51-.42A24.65,24.65,0,0,1,218,280.5Z" transform="translate(-34.67 -64.5)"/>
                  </g>
                  <path class="cls-41" d="M192.17,314.92s-.92,10.87-3.17,16.3-7,30.22,6.82,34.12,43.65,2.46,43.65,2.46,2.9-23.91,21.09-28.64a1,1,0,0,0,0-2l-29.86-7.83L226.87,317Z" transform="translate(-34.67 -64.5)"/>
                </g>
                <path class="cls-42" d="M219.85,284.76a1.12,1.12,0,1,1-1.11-1.12A1.11,1.11,0,0,1,219.85,284.76Z" transform="translate(-34.67 -64.5)"/>
                <path class="cls-42" d="M219.85,289.22a1.12,1.12,0,1,1-1.11-1.12A1.11,1.11,0,0,1,219.85,289.22Z" transform="translate(-34.67 -64.5)"/>
              </g>
              <g>
                <path class="cls-9" d="M211.56,328.74H211l-6.37-.47c-4.23-.37-8.87-.85-10-1-2-.28-14.2-1.77-15-4.2s.38-13.25,3.08-25.12,6.63-19.23,8.32-21.1,5.88-2.05,8.49,4.39-1.19,16.86-3.43,21.44-4.49,12.95-4.49,12.95l16.75,5.48.56.18Z" transform="translate(-34.67 -64.5)"/>
                <path class="cls-9" d="M229.26,323.14c-1-.05-1.47-1.09-2.75-2.5a4.64,4.64,0,0,0-3.29-1.32,6.38,6.38,0,0,1,3,2.35c1.47,1.94,2.4,5.76,1.51,5.74s-2-1.58-2-1.58c.24.79.2,2.74-.73,2.65s-1.57-1.3-1.57-1.3c.21.9-.31,2.49-1.37,1.62a23.71,23.71,0,0,1-2.92-3.67,17.54,17.54,0,0,1-6.08,3.64h-1.56l-5.8-.43-.29-6.82,5.46-.64H211s8.7-5.48,12.55-4.34,5.2,3.16,5.49,3.87S230.3,323.19,229.26,323.14Z" transform="translate(-34.67 -64.5)"/>
                <path class="cls-40" d="M223.14,326.1a10,10,0,0,0-2.75-3.38" transform="translate(-34.67 -64.5)"/>
                <path class="cls-40" d="M225.93,324.86a13.26,13.26,0,0,0-3.15-4.29" transform="translate(-34.67 -64.5)"/>
              </g>
            </g>
          </g>
          <g>
            <g>
              <rect class="cls-43" x="393.63" y="268.21" width="5.25" height="97.55"/>
              <rect class="cls-25" x="108.63" y="268.21" width="5.25" height="97.55"/>
              <rect class="cls-43" x="182.51" y="263.66" width="235.88" height="7.22"/>
              <rect class="cls-25" x="102.03" y="263.66" width="80.48" height="7.22"/>
              <rect class="cls-25" x="168.18" y="268.21" width="5.25" height="97.55"/>
            </g>
            <g>
              <rect class="cls-2" x="201.1" y="260.91" width="61.7" height="2.9"/>
              <rect class="cls-44" x="221.32" y="260.91" width="41.49" height="2.9"/>
              <polygon class="cls-4" points="270.84 235.84 265.13 260.35 262.93 260.35 221.32 260.9 227.46 234.01 268.95 234.01 270.84 235.84"/>
              <polygon class="cls-3" points="270.85 235.84 229.36 235.84 223.63 260.91 265.12 260.91 270.85 235.84"/>
              <path class="cls-4" d="M286.75,312.88a3.37,3.37,0,1,1-3.37-3.37A3.37,3.37,0,0,1,286.75,312.88Z" transform="translate(-34.67 -64.5)"/>
            </g>
          </g>
        </g>
        <g>
          <g>
            <path class="cls-41" d="M292,199.26v10.15a10.34,10.34,0,0,1-10.34,10.34H261.26c-5.65,3.28-15,8.74-15.56,9.32s2-5,3.94-9.48a10.35,10.35,0,0,1-8.46-10.18V199.26a10.33,10.33,0,0,1,10.34-10.34h30.09A10.34,10.34,0,0,1,292,199.26Z" transform="translate(-34.67 -64.5)"/>
            <rect class="cls-45" x="229.42" y="136.4" width="6.12" height="6.12"/>
            <rect class="cls-45" x="241.66" y="136.4" width="6.12" height="6.12"/>
            <rect class="cls-45" x="217.17" y="136.4" width="6.12" height="6.12"/>
          </g>
          <g>
            <path class="cls-30" d="M417.3,199.26v10.15A10.35,10.35,0,0,1,407,219.75H386.6c-5.64,3.28-15,8.74-15.56,9.32s2-5,3.95-9.48a10.35,10.35,0,0,1-8.46-10.18V199.26a10.33,10.33,0,0,1,10.34-10.34H407A10.35,10.35,0,0,1,417.3,199.26Z" transform="translate(-34.67 -64.5)"/>
            <g>
              <rect class="cls-45" x="354.76" y="136.4" width="6.12" height="6.12"/>
              <rect class="cls-45" x="367.01" y="136.4" width="6.12" height="6.12"/>
              <rect class="cls-45" x="342.52" y="136.4" width="6.12" height="6.12"/>
            </g>
          </g>
        </g>
      </g>
    </g>
  </g>
</svg>
