<svg id="Layer_1" data-name="Layer 1" xmlns="http://www.w3.org/2000/svg" viewBox="0 0 1080 1080">
  <defs>
    <style>
      .cls-1 {
        fill: #043147;
      }

      .cls-2 {
        fill: #56c6f2;
      }

      .cls-3 {
        fill: #6ecff6;
      }

      .cls-4 {
        fill: #54c7f3;
      }

      .cls-5 {
        fill: #faa74b;
      }

      .cls-6 {
        fill: #2386ad;
      }

      .cls-7 {
        font-size: 162.19px;
        font-family: Poppins-SemiBold, Poppins;
        font-weight: 600;
      }

      .cls-7, .cls-8 {
        fill: #fff;
      }

      .cls-8 {
        font-size: 32.71px;
        font-family: Poppins-Medium, Poppins;
        font-weight: 500;
      }
    </style>
  </defs>
  <g>
    <polygon class="cls-1" points="540.24 3.24 2.28 414.21 207.76 1079.17 872.72 1079.17 1078.2 414.21 540.24 3.24"/>
    <g>
      <g>
        <path class="cls-2" d="M551.55,298.34v24.81a88.45,88.45,0,0,0-88.35,88.36H438.38A113.3,113.3,0,0,1,551.55,298.34Z"/>
        <path class="cls-3" d="M551.55,219.36v25.26c-92,0-166.89,74.87-166.89,166.89H359.4C359.4,305.56,445.6,219.36,551.55,219.36Z"/>
        <g>
          <path class="cls-4" d="M596.49,655.76H484.66v-206A99.29,99.29,0,0,1,584,350.5h12.54Z"/>
          <path class="cls-5" d="M647.1,655.76H608.77v-128a99.29,99.29,0,0,1,99.29-99.29H720.6V582.26A73.5,73.5,0,0,1,647.1,655.76Z"/>
          <path class="cls-6" d="M434.05,655.76h38.33v-70a99.29,99.29,0,0,0-99.29-99.29H360.54v95.83A73.51,73.51,0,0,0,434.05,655.76Z"/>
        </g>
        <g>
          <rect class="cls-4" x="397.3" y="676.23" width="286.54" height="6.01"/>
          <g>
            <path class="cls-4" d="M385.52,695.76A16.52,16.52,0,1,1,402,679.24,16.54,16.54,0,0,1,385.52,695.76Zm0-27A10.51,10.51,0,1,0,396,679.24,10.52,10.52,0,0,0,385.52,668.73Z"/>
            <path class="cls-4" d="M696.75,695.76a16.52,16.52,0,1,1,16.52-16.52A16.54,16.54,0,0,1,696.75,695.76Zm0-27a10.51,10.51,0,1,0,10.51,10.51A10.52,10.52,0,0,0,696.75,668.73Z"/>
          </g>
        </g>
        <g>
          <rect class="cls-6" x="431.59" y="699.98" width="217.11" height="6.01"/>
          <g>
            <path class="cls-6" d="M422.67,716.23A13.24,13.24,0,1,1,435.91,703,13.26,13.26,0,0,1,422.67,716.23Zm0-20.47A7.23,7.23,0,1,0,429.9,703,7.24,7.24,0,0,0,422.67,695.76Z"/>
            <path class="cls-6" d="M658.48,716.23A13.24,13.24,0,1,1,671.72,703,13.26,13.26,0,0,1,658.48,716.23Zm0-20.47a7.23,7.23,0,1,0,7.24,7.23A7.23,7.23,0,0,0,658.48,695.76Z"/>
          </g>
        </g>
      </g>
      <g>
        <text class="cls-7" transform="translate(270.69 883.56)">ISTESA</text>
        <text class="cls-8" transform="translate(236.17 939.92)">Information System and Technology <tspan x="139.17" y="39.25">Student Association</tspan></text>
      </g>
    </g>
  </g>
</svg>
