<svg id="Layer_1" data-name="Layer 1" xmlns="http://www.w3.org/2000/svg" viewBox="0 0 1080 1080">
  <defs>
    <style>
      .cls-1 {
        fill: #043147;
      }

      .cls-2 {
        fill: none;
        stroke: #fff;
        stroke-miterlimit: 10;
        stroke-width: 17px;
      }

      .cls-3 {
        fill: #56c6f2;
      }

      .cls-4 {
        fill: #6ecff6;
      }

      .cls-5 {
        fill: #54c7f3;
      }

      .cls-6 {
        fill: #faa74b;
      }

      .cls-7 {
        fill: #2386ad;
      }

      .cls-8 {
        font-size: 162.19px;
        font-family: Poppins-SemiBold, Poppins;
        font-weight: 600;
      }

      .cls-8, .cls-9 {
        fill: #fff;
      }

      .cls-9 {
        font-size: 32.71px;
        font-family: Poppins-Medium, Poppins;
        font-weight: 500;
      }
    </style>
  </defs>
  <g>
    <circle class="cls-1" cx="540" cy="540" r="538.18"/>
    <circle class="cls-2" cx="540" cy="540.39" r="508.13"/>
    <g>
      <g>
        <path class="cls-3" d="M551.55,229.56v24.81a88.45,88.45,0,0,0-88.35,88.36H438.38A113.3,113.3,0,0,1,551.55,229.56Z"/>
        <path class="cls-4" d="M551.55,150.58v25.26c-92,0-166.89,74.87-166.89,166.89H359.4C359.4,236.78,445.6,150.58,551.55,150.58Z"/>
        <g>
          <path class="cls-5" d="M596.49,587H484.65V381a99.3,99.3,0,0,1,99.3-99.3h12.54Z"/>
          <path class="cls-6" d="M647.1,587H608.77V459a99.29,99.29,0,0,1,99.29-99.29H720.6V513.48A73.5,73.5,0,0,1,647.1,587Z"/>
          <path class="cls-7" d="M434.05,587h38.33v-70a99.3,99.3,0,0,0-99.29-99.29H360.54v95.83A73.51,73.51,0,0,0,434.05,587Z"/>
        </g>
        <g>
          <rect class="cls-5" x="397.3" y="607.45" width="286.54" height="6.01"/>
          <g>
            <path class="cls-5" d="M385.52,627A16.52,16.52,0,1,1,402,610.46,16.54,16.54,0,0,1,385.52,627Zm0-27A10.51,10.51,0,1,0,396,610.46,10.52,10.52,0,0,0,385.52,600Z"/>
            <path class="cls-5" d="M696.75,627a16.52,16.52,0,1,1,16.52-16.52A16.54,16.54,0,0,1,696.75,627Zm0-27a10.51,10.51,0,1,0,10.51,10.51A10.52,10.52,0,0,0,696.75,600Z"/>
          </g>
        </g>
        <g>
          <rect class="cls-7" x="431.59" y="631.21" width="217.11" height="6.01"/>
          <g>
            <path class="cls-7" d="M422.67,647.45a13.24,13.24,0,1,1,13.24-13.24A13.26,13.26,0,0,1,422.67,647.45Zm0-20.47a7.23,7.23,0,1,0,7.23,7.23A7.24,7.24,0,0,0,422.67,627Z"/>
            <path class="cls-7" d="M658.48,647.45a13.24,13.24,0,1,1,13.24-13.24A13.26,13.26,0,0,1,658.48,647.45Zm0-20.47a7.23,7.23,0,1,0,7.23,7.23A7.23,7.23,0,0,0,658.48,627Z"/>
          </g>
        </g>
      </g>
      <g>
        <text class="cls-8" transform="translate(270.69 814.78)">ISTESA</text>
        <text class="cls-9" transform="translate(236.17 871.14)">Information System and Technology <tspan x="139.17" y="39.25">Student Association</tspan></text>
      </g>
    </g>
  </g>
</svg>
