<svg id="Layer_1" data-name="Layer 1" xmlns="http://www.w3.org/2000/svg" viewBox="0 0 1080 1080">
  <defs>
    <style>
      .cls-1 {
        fill: #56c6f2;
      }

      .cls-2 {
        fill: #6ecff6;
      }

      .cls-3 {
        fill: #54c7f3;
      }

      .cls-4 {
        fill: #faa74b;
      }

      .cls-5 {
        fill: #2386ad;
      }
    </style>
  </defs>
  <g>
    <path class="cls-1" d="M565.11,171.67v53.94c-105.9,0-192,86.15-192,192.05H319.12C319.12,282,429.47,171.67,565.11,171.67Z"/>
    <path class="cls-2" d="M565.11,0V54.91c-200,0-362.75,162.73-362.75,362.75H147.45C147.45,187.36,334.81,0,565.11,0Z"/>
    <g>
      <path class="cls-3" d="M662.79,948.56H419.7V500.88c0-119.2,96.63-215.83,215.82-215.83h27.27Z"/>
      <path class="cls-4" d="M772.78,948.56H689.47V670.39c0-119.2,96.62-215.83,215.82-215.83h27.26V788.79A159.77,159.77,0,0,1,772.78,948.56Z"/>
      <path class="cls-5" d="M309.7,948.56H393V796.33c0-119.2-96.63-215.82-215.82-215.82H149.93V788.79A159.77,159.77,0,0,0,309.7,948.56Z"/>
    </g>
    <g>
      <rect class="cls-3" x="229.83" y="993.06" width="622.82" height="13.06"/>
      <g>
        <path class="cls-3" d="M204.23,1035.49a35.91,35.91,0,1,1,35.9-35.9A35.95,35.95,0,0,1,204.23,1035.49Zm0-58.75a22.85,22.85,0,1,0,22.84,22.85A22.88,22.88,0,0,0,204.23,976.74Z"/>
        <path class="cls-3" d="M880.7,1035.49a35.91,35.91,0,1,1,35.9-35.9A35.94,35.94,0,0,1,880.7,1035.49Zm0-58.75a22.85,22.85,0,1,0,22.84,22.85A22.87,22.87,0,0,0,880.7,976.74Z"/>
      </g>
    </g>
    <g>
      <rect class="cls-5" x="304.36" y="1044.68" width="471.91" height="13.06"/>
      <g>
        <path class="cls-5" d="M285,1080a28.79,28.79,0,1,1,28.79-28.79A28.82,28.82,0,0,1,285,1080Zm0-44.51a15.73,15.73,0,1,0,15.73,15.72A15.74,15.74,0,0,0,285,1035.49Z"/>
        <path class="cls-5" d="M797.52,1080a28.79,28.79,0,1,1,28.79-28.79A28.81,28.81,0,0,1,797.52,1080Zm0-44.51a15.73,15.73,0,1,0,15.73,15.72A15.74,15.74,0,0,0,797.52,1035.49Z"/>
      </g>
    </g>
  </g>
</svg>
