<svg id="Layer_1" data-name="Layer 1" xmlns="http://www.w3.org/2000/svg" viewBox="0 0 1080 1080">
  <defs>
    <style>
      .cls-1 {
        fill: #fff;
      }
    </style>
  </defs>
  <g>
    <path class="cls-1" d="M565.11,171.69v53.93c-105.9,0-192,86.15-192,192.05H319.13C319.13,282,429.48,171.69,565.11,171.69Z"/>
    <path class="cls-1" d="M565.11,0v54.9c-200,0-362.74,162.73-362.74,362.74h-54.9C147.47,187.38,334.82,0,565.11,0Z"/>
    <g>
      <path class="cls-1" d="M662.78,948.54H419.71V500.88c0-119.19,96.62-215.81,215.81-215.81h27.26Z"/>
      <path class="cls-1" d="M772.77,948.54H689.46V670.38c0-119.19,96.62-215.81,215.81-215.81h27.26V788.78A159.76,159.76,0,0,1,772.77,948.54Z"/>
      <path class="cls-1" d="M309.71,948.54H393V796.32C393,677.13,296.4,580.5,177.22,580.5H150V788.78A159.76,159.76,0,0,0,309.71,948.54Z"/>
    </g>
    <g>
      <rect class="cls-1" x="229.85" y="993.03" width="622.79" height="13.06"/>
      <g>
        <path class="cls-1" d="M204.24,1035.47a35.91,35.91,0,1,1,35.9-35.91A35.94,35.94,0,0,1,204.24,1035.47Zm0-58.75a22.85,22.85,0,1,0,22.84,22.84A22.87,22.87,0,0,0,204.24,976.72Z"/>
        <path class="cls-1" d="M880.68,1035.47a35.91,35.91,0,1,1,35.91-35.91A35.95,35.95,0,0,1,880.68,1035.47Zm0-58.75a22.85,22.85,0,1,0,22.85,22.84A22.87,22.87,0,0,0,880.68,976.72Z"/>
      </g>
    </g>
    <g>
      <rect class="cls-1" x="304.38" y="1044.66" width="471.89" height="13.06"/>
      <g>
        <path class="cls-1" d="M285,1080a28.78,28.78,0,1,1,28.79-28.78A28.81,28.81,0,0,1,285,1080Zm0-44.5a15.72,15.72,0,1,0,15.73,15.72A15.74,15.74,0,0,0,285,1035.47Z"/>
        <path class="cls-1" d="M797.51,1080a28.78,28.78,0,1,1,28.79-28.78A28.81,28.81,0,0,1,797.51,1080Zm0-44.5a15.72,15.72,0,1,0,15.72,15.72A15.74,15.74,0,0,0,797.51,1035.47Z"/>
      </g>
    </g>
  </g>
</svg>
