<svg xmlns="http://www.w3.org/2000/svg" viewBox="0 0 292.95 84.28">
  <defs>
    <style>
      .cls-1 {
        font-size: 64.29px;
        fill: #0d3d60;
        font-family: Figtree-Bold, Figtree;
        font-weight: 700;
        letter-spacing: 0.02em;
      }

      .cls-2 {
        fill: #c3e8fb;
      }

      .cls-2, .cls-3, .cls-4, .cls-5 {
        stroke: #fff;
        stroke-linecap: round;
        stroke-linejoin: round;
        stroke-width: 3px;
      }

      .cls-3 {
        fill: #7ac8ef;
      }

      .cls-4 {
        fill: #0c4c82;
      }

      .cls-5 {
        fill: #037dbe;
      }
    </style>
  </defs>
  <g id="Layer_2" data-name="Layer 2">
    <g id="Layer_1-2" data-name="Layer 1">
      <text class="cls-1" transform="translate(126.44 63.87)">didik.</text>
      <g>
        <g>
          <path class="cls-2" d="M57.55,82.72l44.92-8.25A3.5,3.5,0,0,0,105.34,71V48.46A3.5,3.5,0,0,0,101.21,45L56.29,53.27a3.5,3.5,0,0,0-2.87,3.44V79.28A3.5,3.5,0,0,0,57.55,82.72Z"/>
          <path class="cls-3" d="M58.46,81,93.33,63.93a3.5,3.5,0,0,0,2-3.14V5.51a4,4,0,0,0-5.76-3.6L55.38,18.64a3.5,3.5,0,0,0-2,3.14V77.87A3.5,3.5,0,0,0,58.46,81Z"/>
        </g>
        <g>
          <path class="cls-4" d="M49.29,82.72,4.37,74.47A3.5,3.5,0,0,1,1.5,71V48.46A3.5,3.5,0,0,1,5.63,45l44.92,8.25a3.5,3.5,0,0,1,2.87,3.44V79.28A3.5,3.5,0,0,1,49.29,82.72Z"/>
          <path class="cls-5" d="M48.38,81,13.51,63.93a3.5,3.5,0,0,1-2-3.14V5.51a4,4,0,0,1,5.76-3.6L51.46,18.64a3.5,3.5,0,0,1,2,3.14V77.87A3.5,3.5,0,0,1,48.38,81Z"/>
        </g>
      </g>
    </g>
  </g>
</svg>
