<svg width="177" height="42" viewBox="0 0 177 42" fill="none" xmlns="http://www.w3.org/2000/svg">
<path d="M0 31.9312V1.20532H5.99196V26.2227H19.7074V31.954L0 31.9312Z" fill="white"/>
<path d="M44.7688 21.2572C44.7688 27.8072 39.9464 32.5757 33.552 32.5757C27.1575 32.5757 22.3427 27.8072 22.3427 21.2572C22.3427 14.7072 27.1651 9.93115 33.552 9.93115C39.9388 9.93115 44.7688 14.6617 44.7688 21.2572ZM38.9895 21.2572C38.9895 17.2241 36.3771 15.1924 33.552 15.1924C30.7268 15.1924 28.122 17.2317 28.122 21.2572C28.122 25.2827 30.7344 27.322 33.552 27.322C36.3695 27.322 38.9819 25.2903 38.9819 21.2572H38.9895Z" fill="white"/>
<path d="M78.1385 7.6447e-06C78.8431 -0.00144915 79.5324 0.205334 80.1195 0.594289C80.7067 0.983243 81.1653 1.53696 81.4377 2.18569C81.7101 2.83441 81.7841 3.54911 81.6503 4.23972C81.5164 4.93033 81.1808 5.56596 80.6858 6.0665C80.1907 6.56704 79.5583 6.91009 78.8682 7.05244C78.1781 7.19479 77.4613 7.13006 76.808 6.86641C76.1547 6.60276 75.5942 6.15199 75.1972 5.57089C74.8001 4.98979 74.5842 4.30437 74.5767 3.601C74.5707 3.13027 74.6583 2.66302 74.8346 2.22638C75.0109 1.78974 75.2723 1.39241 75.6037 1.05741C75.935 0.722422 76.3297 0.456445 76.7648 0.274926C77.2 0.093408 77.6669 -3.08811e-05 78.1385 7.6447e-06ZM75.2678 31.9313V10.5831H81.0471V31.9313H75.2678Z" fill="white"/>
<path d="M90.335 24.9037C90.4641 26.5943 91.7248 28.1559 94.2461 28.1559C96.1599 28.1559 97.0712 27.1552 97.0712 26.0257C97.0712 25.0705 96.4181 24.2896 94.7929 23.9485L91.9678 23.2965C87.8365 22.3868 85.9683 19.9078 85.9683 16.9209C85.9683 13.1303 89.3554 9.93115 93.9651 9.93115C100.041 9.93115 102.091 13.7975 102.319 16.0945L97.4965 17.1786C97.3989 16.3383 96.9771 15.569 96.3206 15.0339C95.6642 14.4989 94.8247 14.2403 93.9803 14.313C92.4615 14.313 91.2388 15.2303 91.2388 16.4433C91.2388 17.4819 91.9982 18.1338 93.1981 18.3461L96.2359 18.9981C100.451 19.8699 102.585 22.4247 102.585 25.5481C102.585 29.0202 99.8888 32.5757 94.2841 32.5757C87.8517 32.5757 85.6341 28.4137 85.3759 25.9878L90.335 24.9037Z" fill="white"/>
<path d="M114.386 10.5831H118.685V15.7003H114.386V24.6383C114.386 26.5033 115.252 27.1098 116.9 27.1098C117.5 27.1177 118.098 27.0592 118.685 26.9354V31.7114C117.643 32.0964 116.537 32.2741 115.427 32.2345C111.258 32.2345 108.645 29.7555 108.645 25.639V15.7003H104.764V10.5831H105.85C108.129 10.5831 109.154 9.11239 109.154 7.20197V4.16956H114.371L114.386 10.5831Z" fill="white"/>
<path d="M126.461 7.6447e-06C127.166 -0.00144915 127.855 0.205334 128.443 0.594289C129.03 0.983243 129.488 1.53696 129.761 2.18569C130.033 2.83441 130.107 3.54911 129.973 4.23972C129.839 4.93033 129.504 5.56596 129.009 6.0665C128.514 6.56704 127.881 6.91009 127.191 7.05244C126.501 7.19479 125.784 7.13006 125.131 6.86641C124.478 6.60276 123.917 6.15199 123.52 5.57089C123.123 4.98979 122.907 4.30437 122.9 3.601C122.894 3.13027 122.981 2.66302 123.158 2.22638C123.334 1.78974 123.595 1.39241 123.927 1.05741C124.258 0.722422 124.653 0.456445 125.088 0.274926C125.523 0.093408 125.99 -3.08811e-05 126.461 7.6447e-06ZM123.598 31.9313V10.5831H129.378V31.9313H123.598Z" fill="white"/>
<path d="M63.7017 31.9313H69.3975V10.6059H63.8384V13.2365C63.0789 11.7203 61.1424 10.2041 57.7629 10.2041C51.8924 10.2041 47.8143 15.1924 47.8143 21.0905C47.8143 27.3524 52.0671 31.9389 57.7629 31.9389C60.8462 31.9389 62.8435 30.5289 63.7169 29.0733L63.7017 31.9313ZM58.7578 15.4578C61.5373 15.4578 63.7928 17.6335 63.7928 21.0829C63.7928 24.5323 61.712 26.7535 58.7578 26.7535C55.8036 26.7535 53.624 24.5777 53.624 21.0829C53.624 17.588 55.8871 15.4578 58.7578 15.4578Z" fill="white"/>
<path d="M63.2004 34.5089C62.6964 35.2962 62.0019 35.9442 61.181 36.393C60.3601 36.8418 59.4392 37.0771 58.5032 37.0771C57.5673 37.0771 56.6464 36.8418 55.8255 36.393C55.0046 35.9442 54.3101 35.2962 53.8061 34.5089H47.8066C48.642 38.1933 52.6746 41.8777 58.4994 41.8777C64.8635 41.8777 68.1671 38.4131 69.3974 34.5089H63.2004Z" fill="white"/>
<path d="M146.845 19.4908L155.647 31.9086H148.531L142.858 23.7135L140.458 26.2228V31.8858H134.648V0.356323H140.458V18.4447L147.878 10.4694H155.472L146.845 19.4908Z" fill="white"/>
<path d="M163.613 19.5743L168.929 18.8162C170.152 18.6418 170.539 18.058 170.539 17.2999C170.539 15.7837 169.362 14.5101 166.917 14.5101C166.418 14.4687 165.915 14.5261 165.439 14.6792C164.962 14.8323 164.521 15.078 164.139 15.4021C163.758 15.7262 163.445 16.1223 163.218 16.5678C162.991 17.0132 162.854 17.499 162.816 17.9974L157.659 16.9133C158.008 13.5549 161.107 9.84778 166.871 9.84778C173.706 9.84778 176.22 13.6838 176.22 17.9974V28.4971C176.226 29.6339 176.312 30.7688 176.478 31.8934H171.162C171.013 31.0449 170.939 30.1849 170.942 29.3235C170.252 30.3552 169.305 31.1909 168.195 31.7489C167.085 32.307 165.849 32.5683 164.608 32.5075C160.051 32.5075 157.234 29.4144 157.234 26.056C157.166 22.2352 160.029 20.0973 163.613 19.5743ZM170.509 23.2359V22.2807L165.664 23.0388C164.183 23.2586 162.998 24.085 162.998 25.7452C162.998 27.0112 163.917 28.2318 165.793 28.2318C168.238 28.209 170.509 27.0264 170.509 23.2359Z" fill="white"/>
</svg>
