<svg width="772" height="134" viewBox="0 0 772 134" fill="none" xmlns="http://www.w3.org/2000/svg">
<path d="M595.297 97.269H581.495L581.245 96.9951L572.266 87.0264L564.787 78.7249L572.266 70.4236L581.245 60.4668L581.495 60.1929H595.297V70.4236H619.949C619.901 70.0782 619.865 69.7448 619.818 69.3994C619.449 66.5291 618.794 63.7182 617.865 60.9908C616.948 58.2634 615.757 55.6432 614.292 53.1778C612.827 50.7363 611.101 48.4614 609.124 46.4128C607.873 45.1265 606.516 43.9355 605.075 42.8517C598.275 37.778 589.76 35.4675 581.245 35.396C572.73 35.4675 564.216 37.7899 557.416 42.8637C555.975 43.9356 554.617 45.1265 553.367 46.4128C551.39 48.4614 549.663 50.7482 548.198 53.1898C546.734 55.6551 545.543 58.2753 544.626 60.9908C543.697 63.7182 543.042 66.541 542.672 69.3994C542.482 70.8286 542.363 72.2697 542.315 73.7108C542.291 74.4374 542.291 75.1519 542.303 75.8784C542.315 77.129 542.375 78.3796 542.482 79.6301C542.72 82.4409 543.161 85.2398 543.768 87.991C544.387 90.7423 545.185 93.4578 546.15 96.1019C547.114 98.7578 548.246 101.342 549.532 103.855C550.818 106.368 552.259 108.798 553.843 111.132C555.439 113.479 557.165 115.718 559.023 117.838C560.893 119.958 562.882 121.959 564.99 123.828C567.097 125.71 569.324 127.437 571.659 129.021C573.993 130.594 576.41 132.011 578.935 133.261C579.602 133.595 580.304 133.94 581.066 133.964C581.126 133.964 581.186 133.964 581.245 133.952H581.424C582.186 133.952 582.889 133.583 583.556 133.261C586.08 132.011 588.498 130.594 590.832 129.021C593.166 127.437 595.393 125.698 597.501 123.828C599.609 121.959 601.597 119.958 603.467 117.838C605.325 115.706 607.052 113.479 608.647 111.12C610.231 108.786 611.672 106.356 612.958 103.855C614.244 101.342 615.376 98.7459 616.341 96.1019C617.305 93.4578 618.103 90.7423 618.722 87.991C618.794 87.6695 618.865 87.348 618.925 87.0264H595.297V97.269Z" fill="#27A3FB"/>
<path d="M24.4965 75.6878V112.895H0V0.963867H45.3724C68.2135 0.963867 83.4806 15.9349 83.4806 38.3258C83.4806 60.7168 68.2016 75.6878 45.3724 75.6878H24.4965ZM24.4965 22.7473V53.9042H39.9184C51.72 53.9042 57.6147 48.7591 57.6147 38.3258C57.6147 27.8926 51.72 22.7473 39.9184 22.7473H24.4965Z" fill="#FCFCFC"/>
<path d="M89.8281 90.6593C89.8281 76.7483 99.6648 68.1255 117.814 66.7558L138.988 65.0884V63.8735C138.988 56.4654 134.45 52.5351 126.138 52.5351C116.313 52.5351 111.014 56.3106 111.014 63.1232H91.6502C91.6502 46.0322 105.714 34.8367 127.341 34.8367C148.967 34.8367 161.674 47.0923 161.674 68.721V112.884H141.108L139.595 102.903C137.178 109.858 127.198 114.849 115.849 114.849C99.8197 114.849 89.84 105.475 89.84 90.6474L89.8281 90.6593ZM139.131 84.609V80.5238L127.329 81.5838C117.195 82.489 113.562 84.7638 113.562 89.5993C113.562 95.0422 116.885 97.6148 123.994 97.6148C132.914 97.6148 139.119 93.2319 139.119 84.609H139.131Z" fill="#FCFCFC"/>
<path d="M184.801 112.895V56.6316H170.439V37.2658H184.801V13.8267H208.095V37.2658H222.457V56.6316H208.095V112.895H184.801Z" fill="#FCFCFC"/>
<path d="M256.337 0.963867V45.1265C261.017 38.6235 269.639 34.848 279.476 34.848C297.47 34.848 307.902 46.3413 307.902 66.1478V112.895H284.621V71.7455C284.621 62.2174 279.321 56.0242 271.307 56.0242C262.077 56.0242 256.182 62.0745 256.182 71.4478V112.895H232.889V0.963867H256.337Z" fill="#FCFCFC"/>
<path d="M309.713 0.963867H397.731V23.6525H365.97V112.895H341.473V23.6525H309.713V0.963867Z" fill="#FCFCFC"/>
<path d="M452.487 59.1929H445.08C431.766 59.1929 423.751 65.0883 423.751 80.0712V112.895H400.458V37.4212H422.394L423.608 48.6167C426.788 41.2086 433.433 36.2183 443.567 36.2183C446.295 36.2183 449.319 36.516 452.487 37.2783V59.2166V59.1929Z" fill="#FCFCFC"/>
<path d="M458.072 90.6593C458.072 76.7483 467.909 68.1255 486.058 66.7558L507.232 65.0884V63.8735C507.232 56.4654 502.695 52.5351 494.382 52.5351C484.557 52.5351 479.258 56.3106 479.258 63.1232H459.894C459.894 46.0322 473.959 34.8367 495.585 34.8367C517.211 34.8367 529.918 47.0923 529.918 68.721V112.884H509.352L507.839 102.903C505.422 109.858 495.442 114.849 484.093 114.849C468.064 114.849 458.084 105.475 458.084 90.6474L458.072 90.6593ZM507.375 84.609V80.5238L495.573 81.5838C485.439 82.489 481.807 84.7638 481.807 89.5993C481.807 95.0422 485.129 97.6148 492.239 97.6148C501.159 97.6148 507.363 93.2319 507.363 84.609H507.375Z" fill="#FCFCFC"/>
<path d="M655.89 0.963867V64.4923L680.386 37.2658H709.575L681.148 67.2078L708.669 112.895H681.755L664.809 84.6085L655.89 93.9817V112.895H632.596V0.963867H655.89Z" fill="#FCFCFC"/>
<path d="M771.131 59.1929H763.724C750.41 59.1929 742.395 65.0883 742.395 80.0712V112.895H719.102V37.4212H741.037L742.252 48.6167C745.432 41.2086 752.077 36.2183 762.211 36.2183C764.939 36.2183 767.963 36.516 771.131 37.2783V59.2166V59.1929Z" fill="#FCFCFC"/>
</svg>
