<svg width="119" height="152" viewBox="0 0 119 152" fill="none" xmlns="http://www.w3.org/2000/svg">
<g filter="url(#filter0_i_731_1413)">
<path d="M81.22 94.8267H60.0659L59.6837 94.405L45.9219 79.1263L34.462 66.4042L45.9219 53.6821L59.6837 38.4209L60.0659 37.9992H81.22V53.6777H119C118.925 53.1506 118.873 52.6366 118.798 52.1095C118.231 47.7121 117.23 43.4026 115.807 39.2248C114.401 35.0427 112.578 31.0275 110.334 27.2496C108.089 23.5068 105.44 20.0231 102.414 16.8822C100.499 14.9097 98.4167 13.0867 96.2073 11.4261C85.7839 3.65057 72.7381 0.109824 59.688 0C46.6379 0.109824 33.5879 3.6681 23.1689 11.4437C20.9595 13.0866 18.8819 14.9097 16.9623 16.8822C13.9315 20.0231 11.2871 23.5244 9.04254 27.2672C6.79797 31.0451 4.97071 35.0603 3.5695 39.2248C2.14633 43.4026 1.14042 47.7297 0.578184 52.1095C0.288279 54.3016 0.103794 56.5068 0.0291217 58.7165C-0.0060183 59.8279 -0.00603546 60.9261 0.0115345 62.0376C0.0291045 63.9529 0.121398 65.8726 0.283921 67.788C0.648498 72.0975 1.32483 76.385 2.25604 80.6023C3.20482 84.8195 4.42596 88.9797 5.90623 93.0344C7.38651 97.1067 9.11728 101.065 11.0895 104.917C13.0617 108.77 15.2712 112.491 17.6958 116.071C20.1425 119.669 22.7867 123.1 25.633 126.346C28.4969 129.597 31.5452 132.663 34.7781 135.528C38.0066 138.409 41.4196 141.058 44.9995 143.488C48.575 145.895 52.2823 148.07 56.1521 149.985C57.1755 150.494 58.2517 151.026 59.4201 151.061C59.5123 151.061 59.6046 151.061 59.6925 151.044H59.9649C61.1333 151.026 62.2094 150.477 63.2329 149.985C67.1026 148.07 70.8056 145.895 74.3855 143.488C77.961 141.058 81.3739 138.396 84.6068 135.528C87.8353 132.663 90.8836 129.597 93.7519 126.346C96.5983 123.078 99.2469 119.665 101.689 116.054C104.118 112.478 106.323 108.752 108.295 104.917C110.268 101.065 111.998 97.0847 113.479 93.0344C114.959 88.984 116.18 84.8195 117.129 80.6023C117.238 80.1103 117.349 79.6183 117.441 79.1219H81.2333V94.8179L81.22 94.8267Z" fill="#27A3FB"/>
</g>
<defs>
<filter id="filter0_i_731_1413" x="0" y="0" width="119" height="153.581" filterUnits="userSpaceOnUse" color-interpolation-filters="sRGB">
<feFlood flood-opacity="0" result="BackgroundImageFix"/>
<feBlend mode="normal" in="SourceGraphic" in2="BackgroundImageFix" result="shape"/>
<feColorMatrix in="SourceAlpha" type="matrix" values="0 0 0 0 0 0 0 0 0 0 0 0 0 0 0 0 0 0 127 0" result="hardAlpha"/>
<feOffset dy="2.51956"/>
<feGaussianBlur stdDeviation="4.09429"/>
<feComposite in2="hardAlpha" operator="arithmetic" k2="-1" k3="1"/>
<feColorMatrix type="matrix" values="0 0 0 0 1 0 0 0 0 1 0 0 0 0 1 0 0 0 0.25 0"/>
<feBlend mode="normal" in2="shape" result="effect1_innerShadow_731_1413"/>
</filter>
</defs>
</svg>
