<svg id="Layer_1" data-name="Layer 1" xmlns="http://www.w3.org/2000/svg" viewBox="0 0 1080 1080">
  <defs>
    <style>
      .cls-1 {
        fill: #56c6f2;
      }

      .cls-2, .cls-6 {
        fill: #6ecff6;
      }

      .cls-3 {
        fill: #54c7f3;
      }

      .cls-4 {
        fill: #faa74b;
      }

      .cls-5 {
        fill: #2386ad;
      }

      .cls-6 {
        font-size: 224.9px;
        font-family: Poppins-SemiBold, Poppins;
        font-weight: 600;
      }

      .cls-7 {
        font-size: 45.35px;
        fill: #124c5e;
        font-family: Poppins-Medium, Poppins;
        font-weight: 500;
      }
    </style>
  </defs>
  <g>
    <g>
      <path class="cls-1" d="M556,109.52v34.41A122.66,122.66,0,0,0,433.5,266.45H399.09C399.09,179.92,469.49,109.52,556,109.52Z"/>
      <path class="cls-2" d="M556,0V35C428.41,35,324.6,138.85,324.6,266.45h-35C289.57,119.53,409.1,0,556,0Z"/>
      <g>
        <path class="cls-3" d="M618.33,605.15H463.25V319.54A137.7,137.7,0,0,1,600.94,181.85h17.39Z"/>
        <path class="cls-4" d="M688.51,605.15H635.36V427.68A137.68,137.68,0,0,1,773,290h17.4V503.22A101.94,101.94,0,0,1,688.51,605.15Z"/>
        <path class="cls-5" d="M393.08,605.15h53.15V508A137.69,137.69,0,0,0,308.55,370.34h-17.4V503.22A101.94,101.94,0,0,0,393.08,605.15Z"/>
      </g>
      <g>
        <rect class="cls-3" x="342.12" y="633.53" width="397.34" height="8.33"/>
        <g>
          <path class="cls-3" d="M325.79,660.61a22.91,22.91,0,1,1,22.9-22.91A22.94,22.94,0,0,1,325.79,660.61Zm0-37.48a14.57,14.57,0,1,0,14.57,14.57A14.59,14.59,0,0,0,325.79,623.13Z"/>
          <path class="cls-3" d="M757.36,660.61a22.91,22.91,0,1,1,22.9-22.91A22.94,22.94,0,0,1,757.36,660.61Zm0-37.48a14.57,14.57,0,1,0,14.57,14.57A14.59,14.59,0,0,0,757.36,623.13Z"/>
        </g>
      </g>
      <g>
        <rect class="cls-5" x="389.67" y="666.47" width="301.06" height="8.33"/>
        <g>
          <path class="cls-5" d="M377.3,689a18.37,18.37,0,1,1,18.36-18.36A18.39,18.39,0,0,1,377.3,689Zm0-28.39a10,10,0,1,0,10,10A10,10,0,0,0,377.3,660.61Z"/>
          <path class="cls-5" d="M704.29,689a18.37,18.37,0,1,1,18.37-18.36A18.39,18.39,0,0,1,704.29,689Zm0-28.39a10,10,0,1,0,10,10A10,10,0,0,0,704.29,660.61Z"/>
        </g>
      </g>
    </g>
    <g>
      <text class="cls-6" transform="translate(166.55 921.02)">ISTESA</text>
      <text class="cls-7" transform="translate(118.69 999.18)">Information System and Technology <tspan x="192.98" y="54.42">Student Association</tspan></text>
    </g>
  </g>
</svg>
