<svg id="Layer_1" data-name="Layer 1" xmlns="http://www.w3.org/2000/svg" viewBox="0 0 1080 368.71">
  <defs>
    <style>
      .cls-1 {
        fill: #56c6f2;
      }

      .cls-2, .cls-6 {
        fill: #6ecff6;
      }

      .cls-3 {
        fill: #54c7f3;
      }

      .cls-4 {
        fill: #faa74b;
      }

      .cls-5 {
        fill: #2386ad;
      }

      .cls-6 {
        font-size: 201.55px;
        font-family: Poppins-SemiBold, Poppins;
        font-weight: 600;
      }

      .cls-7 {
        font-size: 40.64px;
        fill: #fff;
        font-family: Poppins-Medium, Poppins;
        font-weight: 500;
      }
    </style>
  </defs>
  <g>
    <g>
      <path class="cls-1" d="M142.59,58.61V77A65.64,65.64,0,0,0,77,142.59H58.61A84.07,84.07,0,0,1,142.59,58.61Z"/>
      <path class="cls-2" d="M142.59,0V18.75A124,124,0,0,0,18.75,142.59H0C0,64,64,0,142.59,0Z"/>
      <g>
        <path class="cls-3" d="M175.94,323.84H93V171a73.68,73.68,0,0,1,73.68-73.68h9.31Z"/>
        <path class="cls-4" d="M213.49,323.84H185v-95a73.69,73.69,0,0,1,73.69-73.68H268v114.1A54.54,54.54,0,0,1,213.49,323.84Z"/>
        <path class="cls-5" d="M55.39,323.84H83.84v-52a73.68,73.68,0,0,0-73.68-73.68H.85v71.1A54.54,54.54,0,0,0,55.39,323.84Z"/>
      </g>
      <g>
        <rect class="cls-3" x="28.13" y="339.03" width="212.63" height="4.46"/>
        <g>
          <path class="cls-3" d="M19.38,353.52a12.26,12.26,0,1,1,12.26-12.26A12.27,12.27,0,0,1,19.38,353.52Zm0-20.06a7.8,7.8,0,1,0,7.8,7.8A7.8,7.8,0,0,0,19.38,333.46Z"/>
          <path class="cls-3" d="M250.33,353.52a12.26,12.26,0,1,1,12.26-12.26A12.27,12.27,0,0,1,250.33,353.52Zm0-20.06a7.8,7.8,0,1,0,7.8,7.8A7.81,7.81,0,0,0,250.33,333.46Z"/>
        </g>
      </g>
      <g>
        <rect class="cls-5" x="53.57" y="356.66" width="161.11" height="4.46"/>
        <g>
          <path class="cls-5" d="M47,368.71a9.83,9.83,0,1,1,9.82-9.82A9.84,9.84,0,0,1,47,368.71Zm0-15.19a5.37,5.37,0,1,0,5.37,5.37A5.38,5.38,0,0,0,47,353.52Z"/>
          <path class="cls-5" d="M221.94,368.71a9.83,9.83,0,1,1,9.82-9.82A9.84,9.84,0,0,1,221.94,368.71Zm0-15.19a5.37,5.37,0,1,0,5.36,5.37A5.38,5.38,0,0,0,221.94,353.52Z"/>
        </g>
      </g>
    </g>
    <g>
      <text class="cls-6" transform="translate(310.97 198.9)">ISTESA</text>
      <text class="cls-7" transform="translate(324.87 268.8)">Information System and Technology <tspan x="0" y="48.77">Student Association</tspan></text>
    </g>
  </g>
</svg>
