<svg xmlns="http://www.w3.org/2000/svg" xmlns:xlink="http://www.w3.org/1999/xlink" viewBox="0 0 723.03 184.53">
  <defs>
    <style>
      .cls-1 {
        isolation: isolate;
      }

      .cls-2 {
        fill: red;
      }

      .cls-3 {
        fill: url(#linear-gradient);
      }

      .cls-4, .cls-5 {
        mix-blend-mode: soft-light;
      }

      .cls-4 {
        fill: url(#White_Black);
      }

      .cls-5 {
        fill: url(#White_Black-2);
      }

      .cls-6 {
        fill: #00154b;
      }
    </style>
    <linearGradient id="linear-gradient" x1="-32.86" y1="10.02" x2="107.62" y2="164.38" gradientUnits="userSpaceOnUse">
      <stop offset="0" stop-color="#fa239d"/>
      <stop offset="1" stop-color="#f9a706"/>
    </linearGradient>
    <linearGradient id="White_Black" data-name="White, Black" x1="35.72" y1="162.67" x2="4.41" y2="120.6" gradientUnits="userSpaceOnUse">
      <stop offset="0" stop-color="#fff"/>
      <stop offset="1"/>
    </linearGradient>
    <linearGradient id="White_Black-2" x1="91.98" y1="159.66" x2="122.88" y2="124.28" xlink:href="#White_Black"/>
  </defs>
  <g class="cls-1">
    <g id="Layer_2" data-name="Layer 2">
      <g id="Layer_1-2" data-name="Layer 1">
        <g>
          <g>
            <g>
              <g>
                <path class="cls-2" d="M66,18.32C63.37,14,56.66,5.33,39.93.05a1.08,1.08,0,0,0-1.22,1.62A51.26,51.26,0,0,1,47.2,32.81,51.17,51.17,0,0,1,33.41,64.66L2.88,95.41A10.11,10.11,0,0,0,.62,98.94,10.19,10.19,0,0,0,0,102.41v41.07a10,10,0,0,0,2.88,7L34.12,182a8.65,8.65,0,0,0,14.78-6.17v-24.6A8.71,8.71,0,0,0,46.36,145L24.45,123C66.93,87.29,81,42.43,66,18.32Z"/>
                <path class="cls-2" d="M126.37,99a9.83,9.83,0,0,0-2.24-3.53L92.88,63.94A8.65,8.65,0,0,0,78.1,70.11V94.7a8.72,8.72,0,0,0,2.54,6.17L102.55,123,80.64,145a8.71,8.71,0,0,0-2.54,6.16v24.6A8.65,8.65,0,0,0,92.88,182l31.24-31.47a10,10,0,0,0,2.88-7V102.41A9.91,9.91,0,0,0,126.37,99Z"/>
              </g>
              <g>
                <path class="cls-3" d="M66,18.32C63.37,14,56.66,5.33,39.93.05a1.08,1.08,0,0,0-1.22,1.62A51.26,51.26,0,0,1,47.2,32.81,51.17,51.17,0,0,1,33.41,64.66L2.88,95.41A10.11,10.11,0,0,0,.62,98.94,10.19,10.19,0,0,0,0,102.41v41.07a10,10,0,0,0,2.88,7L34.12,182a8.65,8.65,0,0,0,14.78-6.17v-24.6A8.71,8.71,0,0,0,46.36,145L24.45,123C66.93,87.29,81,42.43,66,18.32Z"/>
                <path class="cls-3" d="M126.37,99a9.83,9.83,0,0,0-2.24-3.53L92.88,63.94A8.65,8.65,0,0,0,78.1,70.11V94.7a8.72,8.72,0,0,0,2.54,6.17L102.55,123,80.64,145a8.71,8.71,0,0,0-2.54,6.16v24.6A8.65,8.65,0,0,0,92.88,182l31.24-31.47a10,10,0,0,0,2.88-7V102.41A9.91,9.91,0,0,0,126.37,99Z"/>
              </g>
            </g>
            <path class="cls-4" d="M48.9,151.19v24.59A8.66,8.66,0,0,1,34.12,182L2.88,150.48a10,10,0,0,1-2.88-7v-.14L24.44,123,46.36,145A8.73,8.73,0,0,1,48.9,151.19Z"/>
            <path class="cls-5" d="M126.36,147a9.8,9.8,0,0,1-2.25,3.54L92.88,182a8.66,8.66,0,0,1-14.78-6.18V151.19A8.73,8.73,0,0,1,80.64,145L102.55,123Z"/>
          </g>
          <g>
            <path class="cls-6" d="M260.59,119.4c-3.52,19-16.61,31.63-36,31.63C202.7,151,186,136,186,107.3c0-28.35,15-45.62,38.89-45.62,20.89,0,34.11,13.36,35.74,30.25H243.1c-2.39-9.45-9.82-15.12-18.12-15.12-14.48,0-21.27,11.21-21.27,29.48,0,18.53,6.79,29.49,20.39,29.49,10.32,0,16.61-5.92,19-16.38Z"/>
            <path class="cls-6" d="M263.12,117.13c0-19.66,12.2-32.64,31.84-32.64,19.38,0,31.46,12.86,31.46,32.64S314.21,149.77,295,149.77C275,149.77,263.12,136.41,263.12,117.13Zm46.82,0c0-12.6-5-18.78-15-18.78s-15,6.18-15,18.78,5,18.9,15,18.9S309.94,129.73,309.94,117.13Z"/>
            <path class="cls-6" d="M375.26,148.13l-.13-7.56c-3.9,6.3-9.69,9.2-17.24,9.2-15.61,0-26.81-12.35-26.81-33.27,0-18.78,9.44-32,25.43-32,7.67,0,13.72,3.15,18.37,9.71V63.45H391v84.68Zm.25-29.49c0-13.48-4.66-20.16-13.72-20.16-9.56,0-14.09,6.43-14.09,19.15,0,11.09,5.79,18.78,14,18.78C369.47,136.41,375.51,129.1,375.51,118.64Z"/>
            <path class="cls-6" d="M413.15,121.42c.5,9.32,5.79,15.37,13.84,15.37,5.29,0,9.94-2.65,11.08-6.93h16.86c-3.77,12.73-14,19.91-27.18,19.91-20.64,0-31-11.34-31-33.77,0-19.16,11-31.51,30-31.51s29.07,12.35,29.07,36.93ZM439,111.08c-.25-9.2-6.3-13.61-12.71-13.61s-12,5-12.59,13.61Z"/>
            <path class="cls-6" d="M461.48,148.13V63.45h16.11V94.2c4.66-6.56,10.7-9.71,18.37-9.71,16,0,25.43,13.23,25.43,32,0,20.92-11.2,33.27-26.81,33.27-7.55,0-13.34-2.9-17.24-9.2l-.13,7.56Zm43.3-30.5c0-12.72-4.54-19.15-14.1-19.15-9.06,0-13.72,6.68-13.72,20.16,0,10.46,6,17.77,13.84,17.77C499,136.41,504.78,128.72,504.78,117.63Z"/>
            <path class="cls-6" d="M527.43,148.13V63.45H543.8v84.68Z"/>
            <path class="cls-6" d="M589.48,148.13a24,24,0,0,1-1-5.54c-3.91,4.28-10.45,7.18-18.76,7.18-14.09,0-20.64-6.93-20.64-17,0-17.9,12-19.91,28.45-22.18,8.18-1.14,10.44-2.77,10.44-7.06,0-4-4-6.43-10.44-6.43-7.43,0-10.45,3.66-11.2,9.2H551.1c.25-12.85,7.3-21.8,27.18-21.8,19.64,0,26.43,8.82,26.43,24.45v39.19Zm-1.13-30.37c-1.64,1.64-4.53,2.52-10.57,3.66-9.32,1.76-12.34,4.41-12.34,9.7,0,4.66,2.77,6.93,7.93,6.93,8.44,0,14.73-6.17,14.85-13.48Z"/>
            <path class="cls-6" d="M609.75,148.13v-12.6l31.59-36.42H611.89v-13h50.34V99.36l-31.59,35.41h32.48v13.36Z"/>
            <path class="cls-6" d="M680.36,121.42c.5,9.32,5.79,15.37,13.85,15.37,5.28,0,9.94-2.65,11.07-6.93h16.87c-3.78,12.73-14,19.91-27.19,19.91-20.64,0-31-11.34-31-33.77,0-19.16,11-31.51,30-31.51S723,96.84,723,121.42Zm25.8-10.34c-.25-9.2-6.29-13.61-12.71-13.61s-12,5-12.59,13.61Z"/>
          </g>
        </g>
      </g>
    </g>
  </g>
</svg>
