<svg xmlns="http://www.w3.org/2000/svg" viewBox="0 0 635.87 145.7">
  <defs>
    <style>
      .cls-1 {
        fill: #eef6f7;
      }
    </style>
  </defs>
  <g id="Layer_2" data-name="Layer 2">
    <g id="Layer_1-2" data-name="Layer 1">
      <g>
        <g>
          <path class="cls-1" d="M198.79,107.13V46.65H211.6v60.48Z"/>
          <path class="cls-1" d="M224,107.13V46.65h21.48c19.2,0,30.83,12.3,30.83,29.91s-12.05,30.57-30.83,30.57Zm12.8-11h8c12,0,18.37-7,18.37-19.54,0-12-6.32-18.87-18.37-18.87h-8Z"/>
          <path class="cls-1" d="M325.9,107.13H285.21V46.65h40.1V57.77H298V70.49h24.76v11H298V96H325.9Z"/>
          <path class="cls-1" d="M371.72,94.16h-23.5l-4.64,13H330.7l22.74-60.48h14L390,107.13H376.27ZM351.84,84h16.34l-8.09-23.33Z"/>
          <path class="cls-1" d="M397.32,107.13V46.65h12.81V70.49h26.19V46.65h12.81v60.48H436.32V81.53H410.13v25.6Z"/>
          <path class="cls-1" d="M497.47,94.16H474l-4.63,13H456.45l22.74-60.48h14l22.57,60.48H502ZM477.59,84h16.35l-8.09-23.33Z"/>
          <path class="cls-1" d="M516,76.81c0-17.69,13.31-31.42,30.33-31.42,15.92,0,28.39,10.61,30.49,26.11H563.26c-1.43-8.68-8.17-14.66-16.76-14.66-10.36,0-17.36,8.18-17.36,20s7,20.13,17.36,20.13c8.59,0,15.24-6.06,16.76-14.74h13.56c-2.1,15.67-14.57,26.2-30.49,26.2C529.31,108.4,516,94.58,516,76.81Z"/>
          <polygon class="cls-1" points="585.75 107.13 585.75 46.65 598.55 46.65 598.55 73.27 620.54 46.65 635.2 46.65 611.19 75.63 635.87 107.13 620.12 107.13 598.55 79.5 598.55 107.13 585.75 107.13"/>
        </g>
        <path class="cls-1" d="M82.4,0,69.72,12.68a1.05,1.05,0,0,1-1.5,0L55.54,0,.25,55.29,0,55.58l.19.1L55,110.51l-.07,0L70.38,126H21.43V145.7h95.09V126H98.27L69.43,97.14l.06-.06L27.91,55.51l40.31-40.3a1.07,1.07,0,0,1,1.5,0L110,55.51,72.6,92.94l4.14,4.14,0,.06,9.8,9.8,51.21-51.2,0-.05.24-.12Z"/>
      </g>
    </g>
  </g>
</svg>
