<svg width="770" height="138" viewBox="0 0 770 138" fill="none" xmlns="http://www.w3.org/2000/svg">
<path fill-rule="evenodd" clip-rule="evenodd" d="M82.2539 0.106934V30.9302V30.9432V61.4486L82.3377 61.4172L123.853 76.8386L164.436 91.9106V122.753L82.3248 92.2599L82.2535 92.234V122.76L82.176 122.731V122.928L41.5933 138L0.0779111 122.585L40.9249 107.41L0.148987 92.2662L0 92.208V61.4752L0.155464 61.4235L0.155822 61.4236L41.6557 46.0094L0.155822 30.6003L82.2539 0.106934ZM164.436 61.7665V30.9238L82.3381 61.4172L123.854 76.8385L164.436 61.7665ZM82.1823 61.793V91.8839L41.6713 76.8384L82.1823 61.793Z" fill="white"/>
<path d="M220.322 95.6527V39.6824H242.732C246.85 39.6824 250.284 40.2928 253.036 41.5135C255.787 42.7342 257.855 44.4286 259.239 46.5967C260.624 48.7466 261.316 51.2245 261.316 54.0303C261.316 56.2166 260.879 58.1388 260.005 59.7967C259.13 61.4365 257.928 62.7847 256.397 63.8415C254.885 64.88 253.154 65.6179 251.205 66.0551V66.6017C253.336 66.6928 255.331 67.2941 257.19 68.4055C259.066 69.5169 260.588 71.0746 261.754 73.0788C262.92 75.0647 263.503 77.4332 263.503 80.1844C263.503 83.1542 262.765 85.8051 261.289 88.1372C259.832 90.4511 257.672 92.2821 254.812 93.6304C251.952 94.9786 248.426 95.6527 244.236 95.6527H220.322ZM232.156 85.9782H241.803C245.101 85.9782 247.506 85.3496 249.018 84.0925C250.53 82.8171 251.287 81.1227 251.287 79.0092C251.287 77.4606 250.913 76.0941 250.166 74.9098C249.419 73.7256 248.353 72.7964 246.969 72.1222C245.602 71.4481 243.971 71.1111 242.077 71.1111H232.156V85.9782ZM232.156 63.1036H240.929C242.55 63.1036 243.99 62.8212 245.247 62.2564C246.522 61.6734 247.524 60.8535 248.253 59.7967C249 58.74 249.374 57.4738 249.374 55.998C249.374 53.9756 248.654 52.345 247.214 51.106C245.793 49.8671 243.771 49.2476 241.147 49.2476H232.156V63.1036ZM290.115 96.4726C285.797 96.4726 282.08 95.5981 278.964 93.849C275.867 92.0817 273.48 89.5856 271.804 86.3608C270.128 83.1177 269.29 79.2825 269.29 74.8552C269.29 70.5371 270.128 66.7475 271.804 63.4862C273.48 60.2249 275.84 57.6833 278.882 55.8613C281.943 54.0394 285.532 53.1284 289.65 53.1284C292.419 53.1284 294.997 53.5748 297.384 54.4675C299.789 55.3421 301.884 56.663 303.67 58.4303C305.474 60.1976 306.877 62.4204 307.879 65.0986C308.881 67.7587 309.382 70.8742 309.382 74.4452V77.6428H273.936V70.4278H298.423C298.423 68.7516 298.058 67.2667 297.33 65.9732C296.601 64.6796 295.59 63.6684 294.296 62.9396C293.021 62.1926 291.536 61.8191 289.841 61.8191C288.074 61.8191 286.507 62.229 285.141 63.0489C283.792 63.8506 282.736 64.9346 281.97 66.3011C281.205 67.6494 280.814 69.1525 280.795 70.8104V77.6701C280.795 79.7471 281.178 81.5417 281.943 83.0539C282.727 84.5662 283.829 85.7322 285.25 86.5521C286.671 87.372 288.356 87.7819 290.306 87.7819C291.599 87.7819 292.784 87.5997 293.859 87.2353C294.934 86.8709 295.854 86.3244 296.619 85.5956C297.384 84.8668 297.967 83.974 298.368 82.9173L309.136 83.6279C308.589 86.215 307.469 88.4743 305.774 90.4055C304.098 92.3186 301.93 93.8126 299.27 94.8875C296.628 95.9443 293.576 96.4726 290.115 96.4726ZM328.622 39.6824V95.6527H316.979V39.6824H328.622ZM349.918 96.4453C347.24 96.4453 344.853 95.9807 342.758 95.0515C340.662 94.1041 339.004 92.7103 337.784 90.8701C336.581 89.0117 335.98 86.6979 335.98 83.9285C335.98 81.5964 336.408 79.6378 337.264 78.0527C338.121 76.4676 339.287 75.1922 340.763 74.2266C342.238 73.261 343.915 72.5322 345.791 72.0403C347.686 71.5483 349.672 71.2022 351.749 71.0017C354.19 70.7467 356.158 70.5098 357.652 70.2912C359.146 70.0543 360.23 69.7082 360.904 69.2527C361.578 68.7972 361.915 68.1231 361.915 67.2303V67.0663C361.915 65.3355 361.369 63.9963 360.276 63.0489C359.201 62.1015 357.67 61.6278 355.684 61.6278C353.589 61.6278 351.922 62.0924 350.683 63.0216C349.444 63.9326 348.624 65.0804 348.223 66.4651L337.456 65.5905C338.002 63.0398 339.077 60.8353 340.681 58.9769C342.284 57.1003 344.352 55.6609 346.884 54.6588C349.435 53.6385 352.387 53.1284 355.739 53.1284C358.071 53.1284 360.303 53.4017 362.435 53.9483C364.585 54.4949 366.489 55.3421 368.146 56.4899C369.823 57.6377 371.144 59.1135 372.109 60.9172C373.075 62.7028 373.558 64.8435 373.558 67.3396V95.6527H362.517V89.8316H362.189C361.515 91.1434 360.613 92.3004 359.483 93.3024C358.354 94.2863 356.996 95.0606 355.411 95.6254C353.826 96.172 351.995 96.4453 349.918 96.4453ZM353.252 88.4105C354.965 88.4105 356.477 88.0734 357.789 87.3993C359.101 86.707 360.13 85.7778 360.877 84.6117C361.624 83.4457 361.997 82.1248 361.997 80.649V76.1943C361.633 76.4312 361.132 76.6498 360.494 76.8502C359.875 77.0324 359.173 77.2055 358.39 77.3695C357.607 77.5152 356.823 77.6519 356.04 77.7794C355.256 77.8887 354.546 77.9889 353.908 78.08C352.541 78.2804 351.348 78.5993 350.328 79.0365C349.308 79.4738 348.515 80.0659 347.95 80.8129C347.385 81.5417 347.103 82.4527 347.103 83.5459C347.103 85.131 347.677 86.3426 348.825 87.1807C349.991 88.0005 351.467 88.4105 353.252 88.4105ZM382.59 53.675H394.232V97.7298C394.232 100.973 393.595 103.596 392.319 105.601C391.044 107.605 389.213 109.071 386.826 110.001C384.458 110.93 381.624 111.394 378.327 111.394C377.926 111.394 377.543 111.385 377.179 111.367C376.796 111.367 376.395 111.358 375.976 111.34V102.239C376.286 102.257 376.559 102.266 376.796 102.266C377.015 102.285 377.252 102.294 377.507 102.294C379.383 102.294 380.695 101.893 381.442 101.091C382.207 100.308 382.59 99.1236 382.59 97.5385V53.675ZM388.384 48.2638C386.671 48.2638 385.195 47.6899 383.956 46.542C382.718 45.376 382.098 43.9822 382.098 42.3607C382.098 40.7574 382.718 39.3818 383.956 38.234C385.195 37.0679 386.671 36.4849 388.384 36.4849C390.133 36.4849 391.618 37.0679 392.838 38.234C394.077 39.3818 394.697 40.7574 394.697 42.3607C394.697 43.9822 394.077 45.376 392.838 46.542C391.618 47.6899 390.133 48.2638 388.384 48.2638ZM415.529 96.4453C412.85 96.4453 410.464 95.9807 408.368 95.0515C406.273 94.1041 404.615 92.7103 403.394 90.8701C402.192 89.0117 401.591 86.6979 401.591 83.9285C401.591 81.5964 402.019 79.6378 402.875 78.0527C403.731 76.4676 404.898 75.1922 406.373 74.2266C407.849 73.261 409.525 72.5322 411.402 72.0403C413.297 71.5483 415.283 71.2022 417.36 71.0017C419.801 70.7467 421.769 70.5098 423.263 70.2912C424.757 70.0543 425.841 69.7082 426.515 69.2527C427.189 68.7972 427.526 68.1231 427.526 67.2303V67.0663C427.526 65.3355 426.98 63.9963 425.886 63.0489C424.811 62.1015 423.281 61.6278 421.295 61.6278C419.2 61.6278 417.533 62.0924 416.294 63.0216C415.055 63.9326 414.235 65.0804 413.834 66.4651L403.066 65.5905C403.613 63.0398 404.688 60.8353 406.291 58.9769C407.895 57.1003 409.963 55.6609 412.495 54.6588C415.046 53.6385 417.997 53.1284 421.35 53.1284C423.682 53.1284 425.914 53.4017 428.045 53.9483C430.195 54.4949 432.099 55.3421 433.757 56.4899C435.433 57.6377 436.754 59.1135 437.72 60.9172C438.686 62.7028 439.168 64.8435 439.168 67.3396V95.6527H428.127V89.8316H427.799C427.125 91.1434 426.223 92.3004 425.094 93.3024C423.964 94.2863 422.607 95.0606 421.022 95.6254C419.437 96.172 417.606 96.4453 415.529 96.4453ZM418.863 88.4105C420.575 88.4105 422.088 88.0734 423.399 87.3993C424.711 86.707 425.741 85.7778 426.488 84.6117C427.235 83.4457 427.608 82.1248 427.608 80.649V76.1943C427.244 76.4312 426.743 76.6498 426.105 76.8502C425.486 77.0324 424.784 77.2055 424.001 77.3695C423.217 77.5152 422.434 77.6519 421.65 77.7794C420.867 77.8887 420.156 77.9889 419.519 78.08C418.152 78.2804 416.959 78.5993 415.939 79.0365C414.918 79.4738 414.126 80.0659 413.561 80.8129C412.996 81.5417 412.714 82.4527 412.714 83.5459C412.714 85.131 413.288 86.3426 414.435 87.1807C415.601 88.0005 417.077 88.4105 418.863 88.4105ZM448.201 95.6527V53.675H459.488V60.9992H459.925C460.69 58.3938 461.975 56.4261 463.778 55.0961C465.582 53.7479 467.659 53.0737 470.01 53.0737C470.593 53.0737 471.221 53.1102 471.895 53.1831C472.569 53.2559 473.161 53.3561 473.672 53.4837V63.8141C473.125 63.6502 472.369 63.5044 471.403 63.3769C470.438 63.2493 469.554 63.1856 468.752 63.1856C467.04 63.1856 465.509 63.5591 464.161 64.3061C462.831 65.0349 461.774 66.0551 460.991 67.3669C460.226 68.6788 459.843 70.191 459.843 71.9036V95.6527H448.201ZM497.721 95.6527V39.6824H509.555V64.3607H510.293L530.435 39.6824H544.618L523.848 64.7433L544.864 95.6527H530.708L515.376 72.6415L509.555 79.7471V95.6527H497.721ZM562.533 96.4453C559.854 96.4453 557.468 95.9807 555.372 95.0515C553.277 94.1041 551.619 92.7103 550.399 90.8701C549.196 89.0117 548.595 86.6979 548.595 83.9285C548.595 81.5964 549.023 79.6378 549.879 78.0527C550.736 76.4676 551.902 75.1922 553.377 74.2266C554.853 73.261 556.529 72.5322 558.406 72.0403C560.301 71.5483 562.287 71.2022 564.364 71.0017C566.805 70.7467 568.773 70.5098 570.267 70.2912C571.761 70.0543 572.845 69.7082 573.519 69.2527C574.193 68.7972 574.53 68.1231 574.53 67.2303V67.0663C574.53 65.3355 573.984 63.9963 572.891 63.0489C571.816 62.1015 570.285 61.6278 568.299 61.6278C566.204 61.6278 564.537 62.0924 563.298 63.0216C562.059 63.9326 561.239 65.0804 560.838 66.4651L550.071 65.5905C550.617 63.0398 551.692 60.8353 553.295 58.9769C554.899 57.1003 556.967 55.6609 559.499 54.6588C562.05 53.6385 565.001 53.1284 568.354 53.1284C570.686 53.1284 572.918 53.4017 575.05 53.9483C577.199 54.4949 579.103 55.3421 580.761 56.4899C582.438 57.6377 583.758 59.1135 584.724 60.9172C585.69 62.7028 586.173 64.8435 586.173 67.3396V95.6527H575.132V89.8316H574.804C574.129 91.1434 573.228 92.3004 572.098 93.3024C570.968 94.2863 569.611 95.0606 568.026 95.6254C566.441 96.172 564.61 96.4453 562.533 96.4453ZM565.867 88.4105C567.58 88.4105 569.092 88.0734 570.404 87.3993C571.715 86.707 572.745 85.7778 573.492 84.6117C574.239 83.4457 574.612 82.1248 574.612 80.649V76.1943C574.248 76.4312 573.747 76.6498 573.109 76.8502C572.49 77.0324 571.788 77.2055 571.005 77.3695C570.221 77.5152 569.438 77.6519 568.654 77.7794C567.871 77.8887 567.16 77.9889 566.523 78.08C565.156 78.2804 563.963 78.5993 562.943 79.0365C561.922 79.4738 561.13 80.0659 560.565 80.8129C560 81.5417 559.718 82.4527 559.718 83.5459C559.718 85.131 560.292 86.3426 561.44 87.1807C562.606 88.0005 564.081 88.4105 565.867 88.4105ZM606.847 71.3844V95.6527H595.205V53.675H606.301V61.0812H606.792C607.722 58.6398 609.279 56.7085 611.466 55.2874C613.652 53.8481 616.303 53.1284 619.419 53.1284C622.334 53.1284 624.875 53.7661 627.043 55.0415C629.212 56.3168 630.897 58.1388 632.099 60.5073C633.302 62.8576 633.903 65.6634 633.903 68.9247V95.6527H622.261V71.0017C622.279 68.4328 621.623 66.4286 620.293 64.9893C618.963 63.5317 617.132 62.803 614.8 62.803C613.233 62.803 611.848 63.14 610.646 63.8141C609.462 64.4883 608.532 65.4721 607.858 66.7657C607.202 68.0411 606.865 69.5806 606.847 71.3844ZM680.711 53.675L666.036 95.6527H652.917L638.242 53.675H650.54L659.258 83.7099H659.695L668.386 53.675H680.711ZM697.512 96.4453C694.834 96.4453 692.447 95.9807 690.352 95.0515C688.256 94.1041 686.598 92.7103 685.378 90.8701C684.175 89.0117 683.574 86.6979 683.574 83.9285C683.574 81.5964 684.002 79.6378 684.859 78.0527C685.715 76.4676 686.881 75.1922 688.357 74.2266C689.832 73.261 691.509 72.5322 693.385 72.0403C695.28 71.5483 697.266 71.2022 699.343 71.0017C701.784 70.7467 703.752 70.5098 705.246 70.2912C706.74 70.0543 707.824 69.7082 708.498 69.2527C709.172 68.7972 709.51 68.1231 709.51 67.2303V67.0663C709.51 65.3355 708.963 63.9963 707.87 63.0489C706.795 62.1015 705.264 61.6278 703.278 61.6278C701.183 61.6278 699.516 62.0924 698.277 63.0216C697.038 63.9326 696.218 65.0804 695.818 66.4651L685.05 65.5905C685.596 63.0398 686.671 60.8353 688.275 58.9769C689.878 57.1003 691.946 55.6609 694.478 54.6588C697.029 53.6385 699.981 53.1284 703.333 53.1284C705.665 53.1284 707.897 53.4017 710.029 53.9483C712.179 54.4949 714.083 55.3421 715.741 56.4899C717.417 57.6377 718.738 59.1135 719.703 60.9172C720.669 62.7028 721.152 64.8435 721.152 67.3396V95.6527H710.111V89.8316H709.783C709.109 91.1434 708.207 92.3004 707.077 93.3024C705.948 94.2863 704.59 95.0606 703.005 95.6254C701.42 96.172 699.589 96.4453 697.512 96.4453ZM700.846 88.4105C702.559 88.4105 704.071 88.0734 705.383 87.3993C706.695 86.707 707.724 85.7778 708.471 84.6117C709.218 83.4457 709.592 82.1248 709.592 80.649V76.1943C709.227 76.4312 708.726 76.6498 708.088 76.8502C707.469 77.0324 706.767 77.2055 705.984 77.3695C705.201 77.5152 704.417 77.6519 703.634 77.7794C702.85 77.8887 702.14 77.9889 701.502 78.08C700.136 78.2804 698.942 78.5993 697.922 79.0365C696.902 79.4738 696.109 80.0659 695.544 80.8129C694.979 81.5417 694.697 82.4527 694.697 83.5459C694.697 85.131 695.271 86.3426 696.419 87.1807C697.585 88.0005 699.061 88.4105 700.846 88.4105ZM765.111 65.6452L754.453 66.3011C754.27 65.3901 753.879 64.5703 753.277 63.8415C752.676 63.0945 751.884 62.5023 750.9 62.0651C749.934 61.6096 748.777 61.3818 747.429 61.3818C745.625 61.3818 744.104 61.7644 742.865 62.5297C741.626 63.2767 741.007 64.2787 741.007 65.5359C741.007 66.538 741.407 67.3852 742.209 68.0775C743.011 68.7699 744.386 69.3255 746.336 69.7446L753.933 71.275C758.014 72.1131 761.057 73.4614 763.061 75.3198C765.065 77.1782 766.067 79.6196 766.067 82.644C766.067 85.3952 765.257 87.8092 763.635 89.8863C762.032 91.9633 759.827 93.5848 757.021 94.7509C754.234 95.8987 751.018 96.4726 747.374 96.4726C741.817 96.4726 737.39 95.3157 734.092 93.0018C730.813 90.6697 728.891 87.4995 728.326 83.4912L739.777 82.89C740.123 84.5844 740.961 85.878 742.291 86.7707C743.621 87.6453 745.325 88.0825 747.402 88.0825C749.442 88.0825 751.082 87.6908 752.321 86.9074C753.578 86.1057 754.216 85.0763 754.234 83.8192C754.216 82.7624 753.769 81.897 752.895 81.2229C752.02 80.5305 750.672 80.0022 748.85 79.6378L741.58 78.1893C737.481 77.3695 734.429 75.9483 732.425 73.926C730.439 71.9036 729.446 69.3255 729.446 66.1918C729.446 63.4953 730.175 61.1723 731.633 59.2228C733.108 57.2733 735.176 55.7702 737.836 54.7135C740.515 53.6568 743.648 53.1284 747.238 53.1284C752.539 53.1284 756.712 54.2489 759.754 56.4899C762.815 58.7309 764.601 61.7827 765.111 65.6452Z" fill="white"/>
</svg>
