<svg width="770" height="139" viewBox="0 0 770 139" fill="none" xmlns="http://www.w3.org/2000/svg">
<path fill-rule="evenodd" clip-rule="evenodd" d="M82.2447 0.876068V31.696V31.709V62.2115L82.3291 62.1799L82.329 62.1798L164.418 31.6897V62.5291L123.84 77.5995L123.84 77.5996L164.418 92.67V123.509L82.3161 93.0193L82.2448 92.9934V123.516L82.167 123.487V123.684L41.5887 138.754L0.0776706 123.341L40.9203 108.168L0.148971 93.0256L0 92.9674V62.2379L0.155435 62.1862L0.155341 62.1861L41.6507 46.7737L0.155341 31.3662L82.2447 0.876068ZM41.6664 77.5994L82.1736 62.5553V92.6434L41.6665 77.5994L41.6664 77.5994Z" fill="#F5CC55"/>
<path d="M220.299 96.4195V40.4551H242.707C246.824 40.4551 250.258 41.0654 253.009 42.286C255.759 43.5065 257.827 45.2008 259.212 47.3687C260.596 49.5183 261.288 51.9959 261.288 54.8014C261.288 56.9875 260.851 58.9095 259.977 60.5673C259.102 62.2069 257.9 63.555 256.37 64.6116C254.858 65.65 253.127 66.3878 251.178 66.825V67.3716C253.309 67.4626 255.304 68.0638 257.162 69.1751C259.039 70.2864 260.56 71.844 261.726 73.8479C262.892 75.8336 263.475 78.2019 263.475 80.9527C263.475 83.9222 262.737 86.5729 261.261 88.9047C259.804 91.2183 257.645 93.0492 254.785 94.3973C251.925 95.7454 248.4 96.4195 244.209 96.4195H220.299ZM232.131 86.7459H241.777C245.075 86.7459 247.48 86.1174 248.992 84.8604C250.504 83.5852 251.26 81.891 251.26 79.7777C251.26 78.2292 250.886 76.8629 250.139 75.6788C249.392 74.4946 248.327 73.5655 246.942 72.8915C245.576 72.2174 243.945 71.8804 242.051 71.8804H232.131V86.7459ZM232.131 63.8738H240.903C242.524 63.8738 243.964 63.5914 245.221 63.0267C246.496 62.4437 247.498 61.6239 248.226 60.5673C248.973 59.5107 249.347 58.2446 249.347 56.7689C249.347 54.7468 248.627 53.1163 247.188 51.8775C245.767 50.6387 243.745 50.0193 241.122 50.0193H232.131V63.8738ZM290.084 97.2393C285.766 97.2393 282.05 96.3648 278.934 94.6159C275.837 92.8488 273.451 90.353 271.775 87.1285C270.099 83.8858 269.261 80.051 269.261 75.6241C269.261 71.3065 270.099 67.5173 271.775 64.2563C273.451 60.9954 275.81 58.4541 278.852 56.6323C281.913 54.8105 285.502 53.8997 289.619 53.8997C292.388 53.8997 294.966 54.346 297.352 55.2387C299.757 56.1131 301.852 57.4339 303.637 59.201C305.441 60.9681 306.844 63.1906 307.846 65.8686C308.848 68.5284 309.349 71.6436 309.349 75.2142V78.4114H273.906V71.1972H298.391C298.391 69.5212 298.026 68.0365 297.298 66.743C296.569 65.4496 295.558 64.4385 294.265 63.7098C292.989 62.9629 291.505 62.5894 289.81 62.5894C288.043 62.5894 286.476 62.9993 285.11 63.8191C283.762 64.6207 282.705 65.7046 281.94 67.071C281.175 68.4191 280.784 69.922 280.765 71.5798V78.4387C280.765 80.5155 281.148 82.31 281.913 83.822C282.696 85.3341 283.799 86.5 285.219 87.3198C286.64 88.1396 288.326 88.5495 290.275 88.5495C291.568 88.5495 292.752 88.3673 293.827 88.0029C294.902 87.6386 295.822 87.0921 296.587 86.3634C297.352 85.6347 297.935 84.742 298.336 83.6854L309.103 84.3959C308.556 86.9828 307.436 89.2417 305.742 91.1728C304.066 93.0856 301.898 94.5795 299.238 95.6543C296.596 96.7109 293.545 97.2393 290.084 97.2393ZM328.586 40.4551V96.4195H316.945V40.4551H328.586ZM349.88 97.2119C347.202 97.2119 344.816 96.7474 342.721 95.8183C340.626 94.871 338.968 93.4773 337.748 91.6374C336.545 89.7792 335.944 87.4655 335.944 84.6965C335.944 82.3646 336.372 80.4062 337.228 78.8213C338.085 77.2364 339.251 75.9611 340.726 74.9956C342.202 74.0301 343.878 73.3014 345.754 72.8095C347.649 72.3176 349.635 71.9715 351.711 71.7711C354.152 71.516 356.12 71.2792 357.614 71.0606C359.108 70.8238 360.192 70.4776 360.866 70.0222C361.54 69.5668 361.877 68.8927 361.877 68.0001V67.8361C361.877 66.1054 361.33 64.7664 360.237 63.8191C359.162 62.8718 357.632 62.3982 355.646 62.3982C353.551 62.3982 351.884 62.8627 350.646 63.7918C349.407 64.7027 348.587 65.8504 348.186 67.2349L337.42 66.3605C337.966 63.81 339.041 61.6057 340.644 59.7475C342.247 57.8711 344.315 56.4319 346.847 55.4299C349.398 54.4098 352.349 53.8997 355.701 53.8997C358.033 53.8997 360.264 54.1729 362.396 54.7195C364.546 55.266 366.449 56.1131 368.107 57.2608C369.783 58.4085 371.104 59.8841 372.069 61.6877C373.035 63.473 373.518 65.6136 373.518 68.1094V96.4195H362.478V90.599H362.15C361.476 91.9106 360.574 93.0674 359.445 94.0694C358.315 95.0531 356.958 95.8274 355.373 96.3921C353.788 96.9387 351.957 97.2119 349.88 97.2119ZM353.214 89.178C354.927 89.178 356.439 88.841 357.75 88.1669C359.062 87.4746 360.091 86.5455 360.838 85.3796C361.585 84.2137 361.959 82.8929 361.959 81.4173V76.9631C361.594 77.1999 361.093 77.4185 360.456 77.6189C359.836 77.8011 359.135 77.9742 358.352 78.1381C357.568 78.2839 356.785 78.4205 356.002 78.548C355.218 78.6573 354.508 78.7575 353.87 78.8486C352.504 79.049 351.311 79.3678 350.29 79.805C349.27 80.2423 348.478 80.8343 347.913 81.5813C347.348 82.31 347.066 83.2208 347.066 84.3139C347.066 85.8988 347.64 87.1103 348.787 87.9483C349.953 88.7681 351.429 89.178 353.214 89.178ZM382.549 54.4462H394.19V98.4963C394.19 101.739 393.553 104.362 392.277 106.366C391.002 108.37 389.171 109.837 386.785 110.766C384.416 111.695 381.584 112.159 378.286 112.159C377.885 112.159 377.503 112.15 377.138 112.132C376.756 112.132 376.355 112.123 375.936 112.105V103.005C376.246 103.023 376.519 103.032 376.756 103.032C376.975 103.051 377.211 103.06 377.466 103.06C379.343 103.06 380.654 102.659 381.401 101.857C382.167 101.074 382.549 99.8899 382.549 98.305V54.4462ZM388.342 49.0356C386.63 49.0356 385.154 48.4617 383.915 47.314C382.677 46.1481 382.057 44.7544 382.057 43.1331C382.057 41.5299 382.677 40.1545 383.915 39.0068C385.154 37.8409 386.63 37.2579 388.342 37.2579C390.091 37.2579 391.576 37.8409 392.796 39.0068C394.035 40.1545 394.655 41.5299 394.655 43.1331C394.655 44.7544 394.035 46.1481 392.796 47.314C391.576 48.4617 390.091 49.0356 388.342 49.0356ZM415.484 97.2119C412.806 97.2119 410.42 96.7474 408.325 95.8183C406.23 94.871 404.572 93.4773 403.351 91.6374C402.149 89.7792 401.548 87.4655 401.548 84.6965C401.548 82.3646 401.976 80.4062 402.832 78.8213C403.688 77.2364 404.854 75.9611 406.33 74.9956C407.805 74.0301 409.482 73.3014 411.358 72.8095C413.253 72.3176 415.238 71.9715 417.315 71.7711C419.756 71.516 421.724 71.2792 423.218 71.0606C424.711 70.8238 425.795 70.4776 426.469 70.0222C427.143 69.5668 427.48 68.8927 427.48 68.0001V67.8361C427.48 66.1054 426.934 64.7664 425.841 63.8191C424.766 62.8718 423.236 62.3982 421.25 62.3982C419.155 62.3982 417.488 62.8627 416.249 63.7918C415.011 64.7027 414.191 65.8504 413.79 67.2349L403.023 66.3605C403.57 63.81 404.645 61.6057 406.248 59.7475C407.851 57.8711 409.919 56.4319 412.451 55.4299C415.001 54.4098 417.953 53.8997 421.305 53.8997C423.637 53.8997 425.868 54.1729 428 54.7195C430.149 55.266 432.053 56.1131 433.711 57.2608C435.387 58.4085 436.708 59.8841 437.673 61.6877C438.639 63.473 439.121 65.6136 439.121 68.1094V96.4195H428.082V90.599H427.754C427.08 91.9106 426.178 93.0674 425.048 94.0694C423.919 95.0531 422.562 95.8274 420.977 96.3921C419.392 96.9387 417.561 97.2119 415.484 97.2119ZM418.818 89.178C420.53 89.178 422.043 88.841 423.354 88.1669C424.666 87.4746 425.695 86.5455 426.442 85.3796C427.189 84.2137 427.562 82.8929 427.562 81.4173V76.9631C427.198 77.1999 426.697 77.4185 426.06 77.6189C425.44 77.8011 424.739 77.9742 423.955 78.1381C423.172 78.2839 422.389 78.4205 421.605 78.548C420.822 78.6573 420.111 78.7575 419.474 78.8486C418.108 79.049 416.914 79.3678 415.894 79.805C414.874 80.2423 414.081 80.8343 413.517 81.5813C412.952 82.31 412.67 83.2208 412.67 84.3139C412.67 85.8988 413.243 87.1103 414.391 87.9483C415.557 88.7681 417.033 89.178 418.818 89.178ZM448.153 96.4195V54.4462H459.439V61.7697H459.876C460.641 59.1645 461.925 57.197 463.729 55.8672C465.532 54.5191 467.609 53.845 469.959 53.845C470.542 53.845 471.171 53.8814 471.845 53.9543C472.519 54.0272 473.111 54.1274 473.621 54.2549V64.5843C473.074 64.4203 472.318 64.2746 471.353 64.147C470.387 64.0195 469.504 63.9558 468.702 63.9558C466.99 63.9558 465.46 64.3292 464.111 65.0761C462.782 65.8048 461.725 66.825 460.942 68.1367C460.176 69.4484 459.794 70.9604 459.794 72.6729V96.4195H448.153ZM497.668 96.4195V40.4551H509.501V65.1308H510.238L530.378 40.4551H544.56L523.792 65.5134L544.806 96.4195H530.651L515.321 73.4107L509.501 80.5155V96.4195H497.668ZM562.473 97.2119C559.795 97.2119 557.408 96.7474 555.313 95.8183C553.218 94.871 551.56 93.4773 550.34 91.6374C549.137 89.7792 548.536 87.4655 548.536 84.6965C548.536 82.3646 548.964 80.4062 549.821 78.8213C550.677 77.2364 551.843 75.9611 553.318 74.9956C554.794 74.0301 556.47 73.3014 558.346 72.8095C560.241 72.3176 562.227 71.9715 564.304 71.7711C566.745 71.516 568.712 71.2792 570.206 71.0606C571.7 70.8238 572.784 70.4776 573.458 70.0222C574.132 69.5668 574.469 68.8927 574.469 68.0001V67.8361C574.469 66.1054 573.922 64.7664 572.829 63.8191C571.754 62.8718 570.224 62.3982 568.238 62.3982C566.143 62.3982 564.477 62.8627 563.238 63.7918C561.999 64.7027 561.179 65.8504 560.778 67.2349L550.012 66.3605C550.558 63.81 551.633 61.6057 553.236 59.7475C554.839 57.8711 556.907 56.4319 559.439 55.4299C561.99 54.4098 564.941 53.8997 568.293 53.8997C570.625 53.8997 572.857 54.1729 574.988 54.7195C577.138 55.266 579.042 56.1131 580.699 57.2608C582.375 58.4085 583.696 59.8841 584.662 61.6877C585.627 63.473 586.11 65.6136 586.11 68.1094V96.4195H575.07V90.599H574.742C574.068 91.9106 573.166 93.0674 572.037 94.0694C570.907 95.0531 569.55 95.8274 567.965 96.3921C566.38 96.9387 564.549 97.2119 562.473 97.2119ZM565.806 89.178C567.519 89.178 569.031 88.841 570.343 88.1669C571.654 87.4746 572.684 86.5455 573.431 85.3796C574.177 84.2137 574.551 82.8929 574.551 81.4173V76.9631C574.187 77.1999 573.686 77.4185 573.048 77.6189C572.429 77.8011 571.727 77.9742 570.944 78.1381C570.16 78.2839 569.377 78.4205 568.594 78.548C567.81 78.6573 567.1 78.7575 566.462 78.8486C565.096 79.049 563.903 79.3678 562.883 79.805C561.862 80.2423 561.07 80.8343 560.505 81.5813C559.94 82.31 559.658 83.2208 559.658 84.3139C559.658 85.8988 560.232 87.1103 561.38 87.9483C562.546 88.7681 564.021 89.178 565.806 89.178ZM606.782 72.1537V96.4195H595.141V54.4462H606.236V61.8516H606.728C607.657 59.4105 609.214 57.4794 611.4 56.0584C613.587 54.6193 616.237 53.8997 619.352 53.8997C622.267 53.8997 624.809 54.5373 626.976 55.8125C629.144 57.0877 630.83 58.9095 632.032 61.2778C633.234 63.6278 633.835 66.4333 633.835 69.6943V96.4195H622.194V71.7711C622.213 69.2024 621.557 67.1985 620.227 65.7593C618.897 64.3019 617.066 63.5732 614.734 63.5732C613.168 63.5732 611.783 63.9102 610.581 64.5843C609.397 65.2583 608.467 66.2421 607.793 67.5355C607.138 68.8107 606.801 70.3501 606.782 72.1537ZM680.639 54.4462L665.964 96.4195H652.848L638.173 54.4462H650.47L659.187 84.4778H659.625L668.314 54.4462H680.639ZM697.437 97.2119C694.759 97.2119 692.373 96.7474 690.278 95.8183C688.183 94.871 686.525 93.4773 685.305 91.6374C684.102 89.7792 683.501 87.4655 683.501 84.6965C683.501 82.3646 683.929 80.4062 684.785 78.8213C685.642 77.2364 686.808 75.9611 688.283 74.9956C689.759 74.0301 691.435 73.3014 693.311 72.8095C695.206 72.3176 697.192 71.9715 699.268 71.7711C701.71 71.516 703.677 71.2792 705.171 71.0606C706.665 70.8238 707.749 70.4776 708.423 70.0222C709.097 69.5668 709.434 68.8927 709.434 68.0001V67.8361C709.434 66.1054 708.887 64.7664 707.794 63.8191C706.719 62.8718 705.189 62.3982 703.203 62.3982C701.108 62.3982 699.441 62.8627 698.203 63.7918C696.964 64.7027 696.144 65.8504 695.743 67.2349L684.977 66.3605C685.523 63.81 686.598 61.6057 688.201 59.7475C689.804 57.8711 691.872 56.4319 694.404 55.4299C696.955 54.4098 699.906 53.8997 703.258 53.8997C705.59 53.8997 707.821 54.1729 709.953 54.7195C712.103 55.266 714.006 56.1131 715.664 57.2608C717.34 58.4085 718.661 59.8841 719.626 61.6877C720.592 63.473 721.075 65.6136 721.075 68.1094V96.4195H710.035V90.599H709.707C709.033 91.9106 708.131 93.0674 707.002 94.0694C705.872 95.0531 704.515 95.8274 702.93 96.3921C701.345 96.9387 699.514 97.2119 697.437 97.2119ZM700.771 89.178C702.484 89.178 703.996 88.841 705.307 88.1669C706.619 87.4746 707.648 86.5455 708.395 85.3796C709.142 84.2137 709.516 82.8929 709.516 81.4173V76.9631C709.151 77.1999 708.65 77.4185 708.013 77.6189C707.393 77.8011 706.692 77.9742 705.909 78.1381C705.125 78.2839 704.342 78.4205 703.559 78.548C702.775 78.6573 702.065 78.7575 701.427 78.8486C700.061 79.049 698.868 79.3678 697.847 79.805C696.827 80.2423 696.035 80.8343 695.47 81.5813C694.905 82.31 694.623 83.2208 694.623 84.3139C694.623 85.8988 695.197 87.1103 696.344 87.9483C697.51 88.7681 698.986 89.178 700.771 89.178ZM765.029 66.4151L754.372 67.071C754.19 66.1601 753.798 65.3403 753.197 64.6116C752.596 63.8647 751.803 63.2726 750.82 62.8354C749.854 62.3799 748.697 62.1522 747.349 62.1522C745.546 62.1522 744.024 62.5348 742.786 63.2999C741.547 64.0468 740.927 65.0488 740.927 66.3058C740.927 67.3078 741.328 68.1549 742.13 68.8472C742.931 69.5394 744.307 70.0951 746.256 70.5141L753.853 72.0444C757.933 72.8824 760.976 74.2305 762.98 76.0887C764.984 77.9468 765.986 80.388 765.986 83.4121C765.986 86.163 765.175 88.5768 763.554 90.6536C761.95 92.7304 759.746 94.3518 756.941 95.5177C754.153 96.6654 750.938 97.2393 747.294 97.2393C741.738 97.2393 737.311 96.0824 734.014 93.7688C730.735 91.437 728.813 88.2671 728.248 84.2592L739.698 83.6581C740.044 85.3523 740.882 86.6457 742.212 87.5384C743.542 88.4128 745.245 88.8501 747.322 88.8501C749.362 88.8501 751.002 88.4584 752.24 87.675C753.497 86.8735 754.135 85.8442 754.153 84.5872C754.135 83.5305 753.689 82.6652 752.814 81.9912C751.94 81.2989 750.592 80.7706 748.77 80.4062L741.501 78.9579C737.402 78.1381 734.351 76.7172 732.347 74.695C730.361 72.6729 729.368 70.0951 729.368 66.9617C729.368 64.2655 730.097 61.9427 731.554 59.9934C733.03 58.0442 735.098 56.5412 737.758 55.4846C740.436 54.428 743.569 53.8997 747.158 53.8997C752.459 53.8997 756.631 55.02 759.673 57.2608C762.734 59.5016 764.519 62.553 765.029 66.4151Z" fill="#F5CC55"/>
</svg>
