<svg xmlns="http://www.w3.org/2000/svg" viewBox="0 0 285.21 74.24">
  <defs>
    <style>
      .cls-1 {
        font-size: 64.29px;
        font-family: Figtree-Bold, Figtree;
        font-weight: 700;
        letter-spacing: 0.02em;
      }

      .cls-1, .cls-2 {
        fill: #fff;
      }
    </style>
  </defs>
  <g id="Layer_2" data-name="Layer 2">
    <g id="Layer_1-2" data-name="Layer 1">
      <text class="cls-1" transform="translate(118.71 58.78)">didik.</text>
      <g>
        <path class="cls-2" d="M12.19,55,45.05,71.11A1.3,1.3,0,0,0,46.92,70V17.11a1.32,1.32,0,0,0-.73-1.17L14,.19A1.68,1.68,0,0,0,13.24,0a1.81,1.81,0,0,0-.94.27,1.76,1.76,0,0,0-.83,1.5V53.85A1.3,1.3,0,0,0,12.19,55Z"/>
        <path class="cls-2" d="M10.43,58.61a5.33,5.33,0,0,1-3-4.76v-14l-3.58-.65A3.29,3.29,0,0,0,0,42.46V63.72A3.29,3.29,0,0,0,2.7,67l39.64,7.28Z"/>
      </g>
      <g>
        <path class="cls-2" d="M86.48,55,53.63,71.11A1.29,1.29,0,0,1,51.76,70V17.11a1.32,1.32,0,0,1,.73-1.17L84.67.19A1.68,1.68,0,0,1,85.44,0a1.81,1.81,0,0,1,.94.27,1.76,1.76,0,0,1,.83,1.5V53.85A1.3,1.3,0,0,1,86.48,55Z"/>
        <path class="cls-2" d="M88.24,58.61a5.32,5.32,0,0,0,3-4.76v-14l3.58-.65a3.29,3.29,0,0,1,3.89,3.24V63.72A3.29,3.29,0,0,1,96,67L56.34,74.24Z"/>
      </g>
    </g>
  </g>
</svg>
