<svg width="831" height="130" viewBox="0 0 831 130" fill="none" xmlns="http://www.w3.org/2000/svg">
<path d="M29.9027 105.586H67.9384V128H0.866513V8.79884H29.9027V105.586ZM171.104 79.097C171.104 81.8138 170.934 84.6438 170.594 87.5871H104.881C105.334 93.4735 107.202 98.0016 110.484 101.171C113.881 104.228 118.012 105.756 122.88 105.756C130.125 105.756 135.162 102.699 137.992 96.5866H168.896C167.312 102.813 164.425 108.416 160.237 113.397C156.161 118.378 151.011 122.283 144.785 125.113C138.558 127.943 131.597 129.358 123.899 129.358C114.616 129.358 106.353 127.377 99.1077 123.415C91.8628 119.453 86.2027 113.793 82.1275 106.435C78.0522 99.077 76.0146 90.4737 76.0146 80.6252C76.0146 70.7766 77.9956 62.1733 81.9577 54.8152C86.0329 47.4571 91.693 41.7971 98.9379 37.835C106.183 33.873 114.503 31.8919 123.899 31.8919C133.068 31.8919 141.219 33.8164 148.35 37.6652C155.482 41.5141 161.029 47.0043 164.991 54.136C169.066 61.2677 171.104 69.588 171.104 79.097ZM141.388 71.4559C141.388 66.475 139.69 62.5129 136.294 59.5697C132.898 56.6265 128.653 55.1548 123.559 55.1548C118.692 55.1548 114.56 56.5699 111.164 59.3999C107.881 62.2299 105.843 66.2486 105.051 71.4559H141.388ZM180.649 80.4554C180.649 70.72 182.46 62.1733 186.082 54.8152C189.818 47.4571 194.855 41.7971 201.195 37.835C207.534 33.873 214.609 31.8919 222.42 31.8919C229.099 31.8919 234.929 33.2504 239.91 35.9672C245.004 38.684 248.909 42.2499 251.626 46.6647V33.2504H280.662V128H251.626V114.586C248.796 119 244.834 122.566 239.74 125.283C234.759 128 228.929 129.358 222.25 129.358C214.552 129.358 207.534 127.377 201.195 123.415C194.855 119.34 189.818 113.623 186.082 106.265C182.46 98.794 180.649 90.1907 180.649 80.4554ZM251.626 80.6252C251.626 73.3803 249.588 67.6636 245.513 63.4752C241.551 59.2867 236.683 57.1925 230.91 57.1925C225.137 57.1925 220.213 59.2867 216.137 63.4752C212.175 67.5504 210.194 73.2105 210.194 80.4554C210.194 87.7003 212.175 93.4735 216.137 97.7752C220.213 101.964 225.137 104.058 230.91 104.058C236.683 104.058 241.551 101.964 245.513 97.7752C249.588 93.5868 251.626 87.8701 251.626 80.6252ZM330.705 49.042C334.101 43.8347 338.346 39.7594 343.44 36.8162C348.534 33.7598 354.194 32.2315 360.42 32.2315V62.9657H352.439C345.194 62.9657 339.761 64.5506 336.138 67.7202C332.516 70.7767 330.705 76.2103 330.705 84.0212V128H301.668V33.2504H330.705V49.042ZM432.031 32.2315C443.125 32.2315 451.955 35.854 458.521 43.0989C465.2 50.2306 468.539 60.0791 468.539 72.6445V128H439.673V76.5499C439.673 70.2106 438.031 65.2864 434.748 61.7771C431.465 58.2679 427.051 56.5133 421.504 56.5133C415.957 56.5133 411.542 58.2679 408.259 61.7771C404.976 65.2864 403.335 70.2106 403.335 76.5499V128H374.299V33.2504H403.335V45.8157C406.278 41.6273 410.24 38.3444 415.221 35.9672C420.202 33.4768 425.805 32.2315 432.031 32.2315ZM515.574 128L481.806 4.50748H497.002L522.81 105.086H524.016L550.306 4.50748H567.19L593.48 105.086H594.686L620.494 4.50748H635.69L601.922 128H586.486L559.23 29.5919H558.266L531.011 128H515.574ZM652.393 128V35.3806H666.623V128H652.393ZM659.628 19.944C656.855 19.944 654.463 18.9994 652.453 17.11C650.483 15.2206 649.498 12.9494 649.498 10.2962C649.498 7.64303 650.483 5.37177 652.453 3.48239C654.463 1.59302 656.855 0.648338 659.628 0.648338C662.402 0.648338 664.774 1.59302 666.744 3.48239C668.754 5.37177 669.759 7.64303 669.759 10.2962C669.759 12.9494 668.754 15.2206 666.744 17.11C664.774 18.9994 662.402 19.944 659.628 19.944ZM732.967 35.3806V47.4404H684.969V35.3806H732.967ZM698.959 13.1905H713.189V101.468C713.189 105.488 713.772 108.503 714.938 110.513C716.144 112.483 717.671 113.81 719.521 114.493C721.41 115.136 723.4 115.458 725.49 115.458C727.058 115.458 728.344 115.377 729.349 115.217C730.354 115.016 731.158 114.855 731.761 114.734L734.656 127.518C733.691 127.879 732.344 128.241 730.616 128.603C728.887 129.005 726.696 129.206 724.043 129.206C720.023 129.206 716.083 128.342 712.224 126.613C708.405 124.885 705.23 122.251 702.697 118.714C700.205 115.176 698.959 110.714 698.959 105.328V13.1905ZM770.594 72.2836V128H756.363V4.50748H770.594V49.8524H771.8C773.971 45.0687 777.227 41.2698 781.568 38.4559C785.95 35.6017 791.779 34.1746 799.055 34.1746C805.366 34.1746 810.894 35.4409 815.637 37.9735C820.381 40.4658 824.059 44.3049 826.672 49.4906C829.325 54.6361 830.652 61.1886 830.652 69.1481V128H816.421V70.1129C816.421 62.7564 814.512 57.0682 810.693 53.0482C806.914 48.9881 801.668 46.958 794.955 46.958C790.292 46.958 786.111 47.9429 782.412 49.9127C778.754 51.8825 775.86 54.7567 773.729 58.5355C771.639 62.3142 770.594 66.8969 770.594 72.2836Z" fill="white"/>
</svg>
