<svg width="770" height="133" viewBox="0 0 770 133" fill="none" xmlns="http://www.w3.org/2000/svg">
<path d="M593.977 96.0914H580.206L579.956 95.8181L570.997 85.8715L563.535 77.5885L570.997 69.3056L579.956 59.3708L580.206 59.0975H593.977V69.3056H618.574C618.527 68.9609 618.491 68.6282 618.443 68.2836C618.075 65.4196 617.421 62.615 616.495 59.8936C615.58 57.1723 614.391 54.5579 612.93 52.098C611.468 49.6618 609.745 47.392 607.773 45.348C606.525 44.0646 605.171 42.8762 603.733 41.7948C596.948 36.7323 588.452 34.4269 579.956 34.3556C571.46 34.4269 562.964 36.7442 556.18 41.8067C554.742 42.8762 553.387 44.0646 552.139 45.348C550.167 47.392 548.444 49.6737 546.983 52.1099C545.521 54.5698 544.333 57.1841 543.418 59.8936C542.491 62.615 541.837 65.4315 541.469 68.2836C541.279 69.7096 541.16 71.1475 541.112 72.5855C541.089 73.3104 541.089 74.0233 541.101 74.7482C541.112 75.996 541.172 77.2438 541.279 78.4916C541.517 81.2962 541.956 84.0889 542.562 86.834C543.18 89.5791 543.976 92.2887 544.939 94.9269C545.901 97.5769 547.03 100.156 548.313 102.663C549.597 105.171 551.034 107.595 552.615 109.924C554.207 112.265 555.93 114.499 557.784 116.615C559.649 118.73 561.633 120.726 563.737 122.592C565.84 124.47 568.062 126.193 570.391 127.773C572.72 129.342 575.132 130.756 577.651 132.004C578.316 132.337 579.017 132.681 579.778 132.705C579.837 132.705 579.897 132.705 579.956 132.693H580.134C580.895 132.693 581.596 132.325 582.261 132.004C584.78 130.756 587.192 129.342 589.521 127.773C591.85 126.193 594.072 124.458 596.176 122.592C598.279 120.726 600.263 118.73 602.129 116.615C603.982 114.487 605.705 112.265 607.298 109.912C608.878 107.583 610.316 105.159 611.599 102.663C612.882 100.156 614.011 97.565 614.974 94.9269C615.936 92.2887 616.732 89.5791 617.35 86.834C617.421 86.5131 617.493 86.1924 617.552 85.8715H593.977V96.0914Z" fill="#27A3FB"/>
<path d="M24.4422 74.5582V111.683H0V0H45.2718C68.0622 0 83.2955 14.9378 83.2955 37.2791C83.2955 59.6204 68.0503 74.5582 45.2718 74.5582H24.4422ZM24.4422 21.7352V52.8229H39.8298C51.6053 52.8229 57.4869 47.6892 57.4869 37.2791C57.4869 26.869 51.6053 21.7352 39.8298 21.7352H24.4422Z" fill="#1D2D3E"/>
<path d="M89.6289 89.4961C89.6289 75.6159 99.4438 67.0122 117.553 65.6456L138.679 63.9818V62.7697C138.679 55.378 134.152 51.4564 125.858 51.4564C116.055 51.4564 110.768 55.2235 110.768 62.021H91.4469C91.4469 44.9679 105.48 33.7972 127.058 33.7972C148.637 33.7972 161.316 46.0256 161.316 67.6064V111.671H140.795L139.286 101.713C136.873 108.653 126.916 113.632 115.592 113.632C99.5984 113.632 89.6408 104.279 89.6408 89.4842L89.6289 89.4961ZM138.822 83.4592V79.3831L127.047 80.4407C116.935 81.3439 113.31 83.6136 113.31 88.4384C113.31 93.8693 116.626 96.4361 123.719 96.4361C132.619 96.4361 138.81 92.063 138.81 83.4592H138.822Z" fill="#1D2D3E"/>
<path d="M184.391 111.683V55.5442H170.061V36.2213H184.391V12.8341H207.633V36.2213H221.963V55.5442H207.633V111.683H184.391Z" fill="#1D2D3E"/>
<path d="M255.769 0V44.0647C260.438 37.5762 269.041 33.809 278.856 33.809C296.81 33.809 307.22 45.2768 307.22 65.0394V111.683H283.989V70.6247C283.989 61.1177 278.702 54.9383 270.705 54.9383C261.496 54.9383 255.614 60.9751 255.614 70.3276V111.683H232.372V0H255.769Z" fill="#1D2D3E"/>
<path d="M309.026 0H396.848V22.6383H365.158V111.683H340.716V22.6383H309.026V0Z" fill="#1D2D3E"/>
<path d="M451.484 58.0995H444.093C430.808 58.0995 422.812 63.9818 422.812 78.9315V111.683H399.57V36.376H421.457L422.669 47.5467C425.841 40.1551 432.472 35.1758 442.584 35.1758C445.305 35.1758 448.323 35.4729 451.484 36.2334V58.1231V58.0995Z" fill="#1D2D3E"/>
<path d="M457.057 89.4961C457.057 75.6159 466.871 67.0122 484.98 65.6456L506.107 63.9818V62.7697C506.107 55.378 501.58 51.4564 493.286 51.4564C483.483 51.4564 478.195 55.2235 478.195 62.021H458.875C458.875 44.9679 472.908 33.7972 494.486 33.7972C516.065 33.7972 528.743 46.0256 528.743 67.6064V111.671H508.222L506.713 101.713C504.301 108.653 494.344 113.632 483.02 113.632C467.026 113.632 457.068 104.279 457.068 89.4842L457.057 89.4961ZM506.25 83.4592V79.3831L494.474 80.4407C484.362 81.3439 480.738 83.6136 480.738 88.4384C480.738 93.8693 484.054 96.4361 491.147 96.4361C500.047 96.4361 506.238 92.063 506.238 83.4592H506.25Z" fill="#1D2D3E"/>
<path d="M654.435 0V63.3875L678.877 36.2215H708.001L679.638 66.0971L707.098 111.683H680.244L663.335 83.4591L654.435 92.8116V111.683H631.193V0H654.435Z" fill="#1D2D3E"/>
<path d="M769.421 58.0995H762.03C748.746 58.0995 740.749 63.9818 740.749 78.9315V111.683H717.507V36.376H739.394L740.606 47.5467C743.779 40.1551 750.409 35.1758 760.521 35.1758C763.242 35.1758 766.26 35.4729 769.421 36.2334V58.1231V58.0995Z" fill="#1D2D3E"/>
</svg>
