<svg width="769" height="134" viewBox="0 0 769 134" fill="none" xmlns="http://www.w3.org/2000/svg">
<path d="M593.652 97.0028H579.888L579.639 96.7297L570.684 86.7885L563.226 78.51L570.684 70.2316L579.639 60.3023L579.888 60.0292H593.652V70.2316H618.236C618.188 69.8872 618.152 69.5546 618.105 69.2102C617.737 66.3478 617.084 63.5447 616.157 60.8248C615.243 58.105 614.055 55.4921 612.594 53.0335C611.134 50.5987 609.412 48.3301 607.44 46.2872C606.193 45.0044 604.84 43.8167 603.403 42.7359C596.621 37.6762 588.13 35.372 579.639 35.3008C571.148 35.372 562.656 37.6881 555.875 42.7478C554.438 43.8167 553.084 45.0044 551.837 46.2872C549.866 48.3301 548.144 50.6105 546.683 53.0454C545.222 55.5039 544.035 58.1168 543.12 60.8248C542.194 63.5447 541.541 66.3597 541.173 69.2102C540.983 70.6355 540.864 72.0726 540.816 73.5097C540.793 74.2342 540.793 74.9468 540.804 75.6713C540.816 76.9184 540.876 78.1656 540.983 79.4127C541.22 82.2157 541.659 85.0068 542.265 87.7505C542.883 90.4941 543.678 93.2022 544.64 95.8389C545.602 98.4875 546.731 101.065 548.013 103.571C549.296 106.077 550.733 108.5 552.312 110.828C553.904 113.168 555.626 115.401 557.478 117.515C559.343 119.629 561.326 121.624 563.428 123.489C565.53 125.365 567.751 127.088 570.079 128.667C572.406 130.235 574.817 131.649 577.335 132.896C578 133.228 578.7 133.573 579.461 133.596C579.52 133.596 579.579 133.596 579.639 133.584H579.817C580.577 133.584 581.278 133.216 581.943 132.896C584.46 131.649 586.871 130.235 589.199 128.667C591.526 127.088 593.747 125.354 595.849 123.489C597.951 121.624 599.935 119.629 601.799 117.515C603.652 115.389 605.374 113.168 606.965 110.816C608.545 108.488 609.982 106.065 611.264 103.571C612.547 101.065 613.675 98.4756 614.637 95.8389C615.599 93.2022 616.395 90.4941 617.012 87.7505C617.084 87.4298 617.155 87.1092 617.214 86.7885H593.652V97.0028Z" fill="#FCFCFC"/>
<path d="M24.4288 75.4813V112.586H0V0.963867H45.247C68.025 0.963867 83.2499 15.8935 83.2499 38.2226C83.2499 60.5517 68.0131 75.4813 45.247 75.4813H24.4288ZM24.4288 22.6871V53.7579H39.808C51.577 53.7579 57.4554 48.627 57.4554 38.2226C57.4554 27.8182 51.577 22.6871 39.808 22.6871H24.4288Z" fill="#FCFCFC"/>
<path d="M89.5798 90.4114C89.5798 76.5389 99.3893 67.9398 117.488 66.574L138.604 64.9111V63.6996C138.604 56.312 134.079 52.3925 125.789 52.3925C115.992 52.3925 110.707 56.1576 110.707 62.9514H91.3969C91.3969 45.9076 105.422 34.743 126.989 34.743C148.556 34.743 161.227 46.9648 161.227 68.5337V112.574H140.718L139.209 102.621C136.798 109.557 126.847 114.534 115.529 114.534C99.5438 114.534 89.5917 105.187 89.5917 90.3995L89.5798 90.4114ZM138.746 84.3778V80.3039L126.977 81.361C116.871 82.2637 113.248 84.5322 113.248 89.3543C113.248 94.7822 116.562 97.3476 123.652 97.3476C132.547 97.3476 138.734 92.9769 138.734 84.3778H138.746Z" fill="#FCFCFC"/>
<path d="M184.29 112.586V56.4778H169.968V37.1655H184.29V13.7911H207.52V37.1655H221.842V56.4778H207.52V112.586H184.29Z" fill="#FCFCFC"/>
<path d="M255.629 0.963867V45.0044C260.296 38.5195 268.894 34.7544 278.703 34.7544C296.648 34.7544 307.051 46.2159 307.051 65.9677V112.586H283.834V71.5499C283.834 62.0481 278.549 55.8721 270.557 55.8721C261.353 55.8721 255.474 61.9056 255.474 71.253V112.586H232.245V0.963867H255.629Z" fill="#FCFCFC"/>
<path d="M308.856 0.963867H396.631V23.5898H364.958V112.586H340.529V23.5898H308.856V0.963867Z" fill="#FCFCFC"/>
<path d="M451.237 59.0319H443.85C430.573 59.0319 422.58 64.911 422.58 79.8525V112.586H399.351V37.3203H421.226L422.438 48.4849C425.609 41.0973 432.235 36.1207 442.342 36.1207C445.061 36.1207 448.078 36.4177 451.237 37.1778V59.0555V59.0319Z" fill="#FCFCFC"/>
<path d="M456.806 90.4114C456.806 76.5389 466.616 67.9398 484.715 66.574L505.83 64.9111V63.6996C505.83 56.312 501.305 52.3925 493.016 52.3925C483.218 52.3925 477.934 56.1576 477.934 62.9514H458.623C458.623 45.9076 472.649 34.743 494.215 34.743C515.782 34.743 528.454 46.9648 528.454 68.5337V112.574H507.944L506.436 102.621C504.025 109.557 494.073 114.534 482.755 114.534C466.77 114.534 456.818 105.187 456.818 90.3995L456.806 90.4114ZM505.973 84.3778V80.3039L494.203 81.361C484.097 82.2637 480.475 84.5322 480.475 89.3543C480.475 94.7822 483.789 97.3476 490.878 97.3476C499.773 97.3476 505.961 92.9769 505.961 84.3778H505.973Z" fill="#FCFCFC"/>
<path d="M654.077 0.963867V64.3167L678.506 37.1655H707.614L679.266 67.0248L706.711 112.586H679.871L662.972 84.3773L654.077 93.7246V112.586H630.848V0.963867H654.077Z" fill="#FCFCFC"/>
<path d="M769 59.0319H761.613C748.336 59.0319 740.343 64.911 740.343 79.8525V112.586H717.114V37.3203H738.99L740.201 48.4849C743.372 41.0973 749.999 36.1207 760.105 36.1207C762.825 36.1207 765.841 36.4177 769 37.1778V59.0555V59.0319Z" fill="#FCFCFC"/>
</svg>
