<svg width="119" height="151" viewBox="0 0 119 151" fill="none" xmlns="http://www.w3.org/2000/svg">
<g filter="url(#filter0_i_731_1412)">
<path d="M81.0557 94.6349H59.9443L59.5629 94.2139L45.829 78.9661L34.3922 66.2698L45.829 53.5735L59.5629 38.3432L59.9443 37.9223H81.0557V53.5691H118.759C118.685 53.043 118.632 52.5301 118.558 52.004C117.992 47.6155 116.993 43.3147 115.572 39.1455C114.17 34.9718 112.35 30.9648 110.11 27.1944C107.87 23.4592 105.227 19.9826 102.207 16.848C100.295 14.8796 98.2175 13.0602 96.0126 11.403C85.6103 3.64318 72.5909 0.109602 59.5672 0C46.5435 0.109602 33.5199 3.66068 23.122 11.4205C20.917 13.0602 18.8436 14.8796 16.928 16.848C13.9033 19.9826 11.2643 23.4768 9.02424 27.212C6.78422 30.9823 4.96065 34.9893 3.56228 39.1455C2.14199 43.3147 1.13812 47.6331 0.577014 52.004C0.287696 54.1917 0.103584 56.3924 0.0290628 58.5976C-0.00600612 59.7068 -0.00602325 60.8029 0.0115112 61.912C0.0290456 63.8235 0.121153 65.7393 0.283346 67.6508C0.647186 71.9516 1.32215 76.2305 2.25148 80.4392C3.19834 84.6479 4.41701 88.7996 5.89428 92.8461C7.37156 96.9102 9.09883 100.86 11.0671 104.705C13.0353 108.55 15.2403 112.263 17.66 115.836C20.1017 119.427 22.7406 122.851 25.5811 126.091C28.4393 129.335 31.4814 132.395 34.7077 135.253C37.9297 138.129 41.3358 140.773 44.9084 143.197C48.4767 145.6 52.1765 147.77 56.0385 149.681C57.0598 150.19 58.1338 150.72 59.2998 150.756C59.3919 150.756 59.484 150.756 59.5717 150.738H59.8435C61.0096 150.72 62.0835 150.172 63.1049 149.681C66.9669 147.77 70.6623 145.6 74.2349 143.197C77.8032 140.773 81.2093 138.116 84.4356 135.253C87.6576 132.395 90.6997 129.335 93.5622 126.091C96.4028 122.829 99.046 119.422 101.483 115.819C103.907 112.25 106.108 108.532 108.076 104.705C110.045 100.86 111.772 96.8882 113.249 92.8461C114.726 88.804 115.945 84.6479 116.892 80.4392C117.001 79.9482 117.111 79.4572 117.203 78.9618H81.0689V94.6261L81.0557 94.6349Z" fill="white"/>
</g>
<defs>
<filter id="filter0_i_731_1412" x="0" y="0" width="118.759" height="153.27" filterUnits="userSpaceOnUse" color-interpolation-filters="sRGB">
<feFlood flood-opacity="0" result="BackgroundImageFix"/>
<feBlend mode="normal" in="SourceGraphic" in2="BackgroundImageFix" result="shape"/>
<feColorMatrix in="SourceAlpha" type="matrix" values="0 0 0 0 0 0 0 0 0 0 0 0 0 0 0 0 0 0 127 0" result="hardAlpha"/>
<feOffset dy="2.51446"/>
<feGaussianBlur stdDeviation="4.086"/>
<feComposite in2="hardAlpha" operator="arithmetic" k2="-1" k3="1"/>
<feColorMatrix type="matrix" values="0 0 0 0 1 0 0 0 0 1 0 0 0 0 1 0 0 0 0.25 0"/>
<feBlend mode="normal" in2="shape" result="effect1_innerShadow_731_1412"/>
</filter>
</defs>
</svg>
