<svg width="239" height="116" viewBox="0 0 239 116" fill="none" xmlns="http://www.w3.org/2000/svg">
<path d="M221.51 115.275H176.096L140.671 65.2819V115.275H102.492V28.6513H70.1586V115.275H31.9797V28.6513H30.253C22.229 28.6502 14.534 25.6311 8.86063 20.2581C3.18722 14.885 -8.16673e-08 7.59808 0 0L140.671 0V48.522L175.582 0H218.751L176.795 55.1851L221.51 115.275Z" fill="#1D1D1D"/>
<path d="M238.462 57.6379C222.357 60.6027 219.954 63.0061 216.989 79.1107C214.024 63.0061 211.621 60.6027 195.516 57.6379C211.621 54.6731 214.024 52.2697 216.989 36.1649C219.954 52.2697 222.357 54.6731 238.462 57.6379Z" fill="#FF7A3E"/>
</svg>
