<svg width="239" height="116" viewBox="0 0 239 116" fill="none" xmlns="http://www.w3.org/2000/svg">
<path d="M222.048 115.275H176.634L141.209 65.2819V115.275H103.03V28.6513H70.6965V115.275H32.5177V28.6513H30.7909C22.767 28.6502 15.072 25.6311 9.39859 20.2581C3.72518 14.885 0.537964 7.59808 0.537964 0L141.209 0V48.522L176.12 0H219.289L177.333 55.1851L222.048 115.275Z" fill="white"/>
<path d="M239 57.6379C222.895 60.6027 220.492 63.0061 217.527 79.1107C214.562 63.0061 212.159 60.6027 196.054 57.6379C212.159 54.6731 214.562 52.2697 217.527 36.1649C220.492 52.2697 222.895 54.6731 239 57.6379Z" fill="white"/>
</svg>
